<svg version="1.1" xmlns="http://www.w3.org/2000/svg" xmlns:xlink="http://www.w3.org/1999/xlink" width="95.17898" height="99.84079" viewBox="0,0,95.17898,99.84079"><g transform="translate(-192.32102,-130.50077)"><g data-paper-data="{&quot;isPaintingLayer&quot;:true}" fill-rule="evenodd" stroke-miterlimit="10" stroke-dasharray="" stroke-dashoffset="0" style="mix-blend-mode: normal"><g><g><path d="M224.7,201.1c0.8,0.4 2.5,1.3 0.1,4.7c-2.4,3.4 -9.3,4.1 -10.1,4.1c-3.1,0.1 -6.9,0.1 -11.1,-1.3c-12.2,-4 -12.3,-17.1 -8.4,-19.2c3.8,-2.1 5.5,6 11,10.9c2.4,2.2 5.3,3 7.7,3.5c3.4,0.6 9.9,-3.2 10.8,-2.7z" fill="#ffab19" stroke="#001026" stroke-width="1.2" stroke-linecap="round" stroke-linejoin="round"/><path d="M199.9,193c1.6,2.7 4.7,6.5 4.7,6.5c0,0 -3.7,-0.9 -5.8,0.8c-1.7,1.3 -1.3,3.5 -1.1,4.2c-1.3,-1.3 -2.9,-3.1 -3.9,-6.6c-1,-3.5 0,-7.7 2,-8.3c2,-0.4 2.5,1.1 4.1,3.4z" fill="#ffffff" stroke="none" stroke-width="1" stroke-linecap="butt" stroke-linejoin="miter"/></g><path d="M229.7,211.5c-1.8,1.2 -8,5.6 -15.9,8.1l-0.4,0.1c-0.4,0.1 -0.6,0.6 -0.4,1c1.7,2.4 4.8,7.2 -0.7,8.9c-5.3,1.7 -15.2,-12.4 -11,-16.1c1.9,-1.4 3.6,-0.7 4.5,-0.3c0.5,0.2 1,0.2 1.5,0.1c1.2,-0.4 3.4,-1.2 5.1,-2.1c4.3,-2.2 5.3,-3.1 7.3,-4.6c2,-1.5 6.6,-5.2 10.3,-2c3.2,2.7 1.4,5.7 -0.3,6.9z" fill="#ffab19" stroke="#001026" stroke-width="1.2" stroke-linecap="round" stroke-linejoin="round"/><path d="M245.6,190.7c0.5,0.4 6.6,7.6 8.6,5.8c2.4,-2.1 5.7,-6.2 9.3,-2.9c3.6,3.3 -3.2,8.9 -6.1,10.4c-6.9,3.1 -12.5,-2.8 -13.7,-4.4c-1.2,-1.6 -3.3,-4.3 -3.3,-6.9c0.1,-2.8 3.5,-3.5 5.2,-2z" fill="#ffab19" stroke="#001026" stroke-width="1.2" stroke-linecap="round" stroke-linejoin="round"/><g><path d="M245.7,214c2.1,1.9 6.7,5.8 6.7,5.8c0,0 14.3,-2.5 14.3,4.7c0,4.3 -7.2,5.3 -16.9,4.4c-0.6,-0.1 -1.2,-0.3 -1.7,-0.7c-2.2,-1.9 -8.5,-7.5 -12.5,-11.4c-5.9,-5.8 -10.8,-9.6 -10.8,-9.6c-8.5,-8.3 -1.6,-11.8 1.1,-16.6c2.5,-4.1 3.6,-3.3 9.6,-2.1c3.4,0.5 5.4,0.8 7.6,0.7c3.3,-0.1 2.7,4.7 1.8,7.2c0,0 -1.4,3.7 -2.7,5.6c-1.6,2.3 -2.8,3.8 -4,4.7z" fill="#ffab19" stroke="#001026" stroke-width="1.2" stroke-linecap="round" stroke-linejoin="round"/><path d="M237.3,206.6c0,0 -1.5,-1.2 -3.1,-2.7c-2,-1.8 -4,-3.3 -2,-6.4c1.8,-2.4 3.5,-5.6 8,-2.7c4.3,2.7 2.4,5.2 2.4,5.2c-2.2,4.5 -5.3,6.6 -5.3,6.6z" fill="#ffffff" stroke="none" stroke-width="1" stroke-linecap="butt" stroke-linejoin="miter"/></g><path d="M222.2,198.4c2.2,2.8 5.6,6.3 1.3,9.2c-5.9,3.3 -10.8,-6.7 -11.8,-10.2c-0.9,-3.1 1.7,-5.1 3.9,-6.8c4.3,-3.1 7.9,-5.9 11.9,-4.4c5,1.8 1.4,5.8 -1.1,7.6c-1.5,1.1 -3,2.3 -4.1,3c-0.3,0.5 -0.4,1.1 -0.1,1.6z" fill="#ffab19" stroke="#001026" stroke-width="1.2" stroke-linecap="round" stroke-linejoin="round"/><g><path d="M253.7,131c0.3,-0.2 0.8,-0.1 0.9,0.3l2.6,10.7c0,0 6.4,4.7 8.3,8c3.2,5.5 3.3,10 3.3,10c0,0 7.1,2.1 8.3,7.8c1.2,5.7 -3.2,16.5 -22,20.2c-18.8,3.7 -33.9,-1.4 -41,-12.8c-7.1,-11.4 4.1,-25 3.5,-24.2l-2.1,-17.9c-0.1,-0.4 0.4,-0.7 0.8,-0.5l12.1,7.9c0,0 4.5,-1.7 9.2,-1.9c2.8,-0.2 5.2,0 7.5,0.4z" fill="#ffab19" stroke="#001026" stroke-width="1.2" stroke-linecap="butt" stroke-linejoin="miter"/><path d="M268.5,160.4c0,0 6.9,1.8 8.1,7.5c1.2,5.7 -3.6,16 -22.2,19.6c-24.2,5 -35.7,-9.4 -29,-20c6.7,-10.7 18.2,-1.6 26.6,-2.2c7.2,-0.5 8,-6.8 16.5,-4.9z" fill="#ffffff" stroke="none" stroke-width="1" stroke-linecap="butt" stroke-linejoin="miter"/><path d="M237,171.1c0,-0.4 0.4,-0.7 0.8,-0.6c1.9,0.7 7.3,2.3 13.3,2.7c5.4,0.3 8.6,0 10.1,-0.3c0.5,-0.1 0.9,0.4 0.7,0.9c-0.9,2.7 -4.7,10.2 -15.2,9.6c-9.1,-1 -10,-7.4 -9.7,-12.3z" fill="#ffffff" stroke="#001026" stroke-width="1.2" stroke-linecap="round" stroke-linejoin="round"/><path d="M286.9,161.5c-4.7,3.8 -11.9,3.9 -11.9,3.9" fill="none" stroke="#001026" stroke-width="1.2" stroke-linecap="round" stroke-linejoin="round"/><path d="M285.6,172.7c-6.3,0.5 -10.2,-1.4 -10.2,-1.4" fill="none" stroke="#001026" stroke-width="1.2" stroke-linecap="round" stroke-linejoin="round"/><path d="M251.6,162.7c2.1,0 4.3,0.2 4.4,0.9c0.1,1.4 -1.4,4.2 -3,4.3c-1.8,0.2 -6,-2.3 -6,-3.9c-0.1,-1.2 2.6,-1.3 4.6,-1.3z" fill="#001026" stroke="#001026" stroke-width="1.2" stroke-linecap="round" stroke-linejoin="round"/><path d="M206.6,161.2c0,0 8.6,2.8 12.1,5.9" fill="none" stroke="#001026" stroke-width="1.2" stroke-linecap="round" stroke-linejoin="round"/><path d="M219,170.6c-4.3,1.7 -11.7,0.6 -11.7,0.6" fill="none" stroke="#001026" stroke-width="1.2" stroke-linecap="round" stroke-linejoin="round"/><g><path d="M263.4,151c2.9,4.5 3,9.6 0.2,11.4c-2.8,1.8 -7.4,-0.3 -10.4,-4.8c-2.9,-4.5 -3,-9.6 -0.2,-11.4c2.8,-1.9 7.5,0.3 10.4,4.8z" fill="#ffffff" stroke="#001026" stroke-width="1.2" stroke-linecap="round" stroke-linejoin="round"/><path d="M263,156.7c0,1.1 -0.8,2 -1.8,2c-1,0 -1.8,-0.9 -1.8,-2c0,-1.1 0.8,-2 1.8,-2c1,0 1.8,0.9 1.8,2" fill="#001026" stroke="none" stroke-width="1" stroke-linecap="butt" stroke-linejoin="miter"/></g><g><path d="M238.6,153.8c3,4.4 2.8,9.8 0.1,11.7c-3.3,1.9 -7.7,0.5 -10.7,-3.9c-3.1,-4.4 -3.3,-10.1 -0.2,-12.3c3.1,-2.3 7.8,0.1 10.8,4.5z" fill="#ffffff" stroke="#001026" stroke-width="1.2" stroke-linecap="round" stroke-linejoin="round"/><path d="M238,159.6c0,1.1 -0.8,2 -1.8,2c-1,0 -1.8,-0.9 -1.8,-2c0,-1.1 0.8,-2 1.8,-2c1,0.1 1.8,0.9 1.8,2" fill="#001026" stroke="none" stroke-width="1" stroke-linecap="butt" stroke-linejoin="miter"/></g></g><g><path d="M253.85505,185.13955c0.3514,1.6556 0.5234,3.3455 0.5127,5.0393c0.0944,2.5856 -0.3442,5.1626 -1.2877,7.565c-4.0777,0 -8.2508,-4.165 -8.8469,-4.7843c0.0181,-0.1166 0.0181,-0.2355 0,-0.3521v-3.7157c3.085,-1.5545 6.3064,-2.8107 9.6219,-3.7522z" fill="#14e148" stroke="none" stroke-width="1" stroke-linecap="butt" stroke-linejoin="miter"/><path d="M244.13775,187.72595c0.0181,-0.1166 0.0181,-0.2354 0,-0.3521c0.5961,-0.6193 4.7811,-4.7843 8.8469,-4.7843c0.353,0.8182 0.6169,1.6733 0.7869,2.55c-3.2869,0.9465 -6.4802,2.2026 -9.5384,3.7522z" fill="#acff74" stroke="none" stroke-width="1" stroke-linecap="butt" stroke-linejoin="miter"/><path d="M254.36775,190.17885c0.0789,2.598 -0.3802,5.1839 -1.3473,7.5893c-4.3877,0 -8.9304,-4.8572 -8.9304,-4.8572v-5.4642c0,0 4.5427,-4.8572 8.9304,-4.8572c0.9671,2.4054 1.4262,4.9913 1.3473,7.5893z" fill="none" stroke="#149948" stroke-width="0.96" stroke-linecap="butt" stroke-linejoin="miter"/><g fill="none" stroke="#00b82b" stroke-width="0.768" stroke-linecap="round" stroke-linejoin="round"><path d="M249.25275,194.67175c-1.1829,-0.6349 -2.3011,-1.3874 -3.3385,-2.2465"/><path d="M251.53005,195.71595c0,0 -0.3815,-0.1335 -0.9777,-0.3764"/></g></g><g><path d="M235.80355,188.87955c-3.0005,-1.6995 -6.2075,-2.9896 -9.5385,-3.8371c0.179,-0.8336 0.4386,-1.6471 0.775,-2.4286c4.0777,0 8.2508,4.165 8.8469,4.7843c-0.0181,0.1166 -0.0181,0.2355 0,0.3521z" fill="#acff74" stroke="none" stroke-width="1" stroke-linecap="butt" stroke-linejoin="miter"/><path d="M235.89885,192.63175c-0.018,0.1166 -0.018,0.2354 0,0.3521c-0.5961,0.6193 -4.7811,4.7843 -8.8469,4.7843c-0.9508,-2.409 -1.3936,-4.9947 -1.2996,-7.5893c0.0146,-1.7291 0.2145,-3.4515 0.5962,-5.1364c3.3309,0.8475 6.5379,2.1376 9.5384,3.8371z" fill="#14e148" stroke="none" stroke-width="1" stroke-linecap="butt" stroke-linejoin="miter"/><path d="M227.09965,182.58955c4.3877,0 8.9304,4.8572 8.9304,4.8572v5.4642c0,0 -4.5427,4.8572 -8.9304,4.8572c-0.9671,-2.4054 -1.4262,-4.9913 -1.3473,-7.5893c-0.0789,-2.598 0.3802,-5.1839 1.3473,-7.5893z" fill="none" stroke="#149948" stroke-width="0.96" stroke-linecap="butt" stroke-linejoin="miter"/><g fill="none" stroke="#00b82b" stroke-width="0.768" stroke-linecap="round" stroke-linejoin="round"><path d="M233.94355,192.58315c-0.2923,0.2717 -0.5988,0.527 -0.9181,0.765"/><path d="M231.94045,194.07675c-1.0949,0.6646 -2.2534,1.2139 -3.4577,1.6392"/></g></g><g stroke-linecap="butt" stroke-linejoin="miter"><path d="M244.17355,192.98385c-0.1474,0.4354 -0.5494,0.7278 -1.0016,0.7286h-6.2238c-0.4522,-0.0008 -0.8542,-0.2932 -1.0016,-0.7286l0.0835,-0.0729v-3.9464h8.06v3.9464z" fill="#14e148" stroke="none" stroke-width="1"/><path d="M235.94655,187.37385c0.1474,-0.4354 0.5494,-0.7278 1.0016,-0.7286h6.2238c0.4522,0.0008 0.8542,0.2932 1.0016,0.7286l-0.0835,0.0729v1.5178h-8.06v-1.5178z" fill="#acff74" stroke="none" stroke-width="1"/><path d="M236.81098,193.71242c-0.51031,0 -0.924,0 -0.924,0v-7.06714c0,0 0.41369,0 0.924,0h6.51008c0.51031,0 0.924,0 0.924,0v7.06714c0,0 -0.41369,0 -0.924,0z" fill="none" stroke="#149948" stroke-width="0.96"/></g></g></g></g></svg>