<svg version="1.1" xmlns="http://www.w3.org/2000/svg" xmlns:xlink="http://www.w3.org/1999/xlink" width="160.38284" height="108.18985" viewBox="0,0,160.38284,108.18985"><g transform="translate(-159.80858,-128.32031)"><g data-paper-data="{&quot;isPaintingLayer&quot;:true}" stroke-miterlimit="10" stroke-dasharray="" stroke-dashoffset="0" style="mix-blend-mode: normal"><g fill="#66a2ff" fill-rule="evenodd"><path d="M227.96448,203.03813c0.8,0.4 2.5,1.3 0.1,4.7c-2.4,3.4 -9.3,4.1 -10.1,4.1c-3.1,0.1 -6.9,0.1 -11.1,-1.3c-12.2,-4 -12.3,-17.1 -8.4,-19.2c3.8,-2.1 5.5,6 11,10.9c2.4,2.2 5.3,3 7.7,3.5c3.4,0.6 9.9,-3.2 10.8,-2.7z" stroke="#001026" stroke-width="1.2" stroke-linecap="round" stroke-linejoin="round"/><path d="M203.16448,194.93813c1.6,2.7 4.7,6.5 4.7,6.5c0,0 -3.7,-0.9 -5.8,0.8c-1.7,1.3 -1.3,3.5 -1.1,4.2c-1.3,-1.3 -2.9,-3.1 -3.9,-6.6c-1,-3.5 0,-7.7 2,-8.3c2,-0.4 2.5,1.1 4.1,3.4z" stroke="none" stroke-width="1" stroke-linecap="butt" stroke-linejoin="miter"/></g><path d="M232.96448,213.43813c-1.8,1.2 -8,5.6 -15.9,8.1l-0.4,0.1c-0.4,0.1 -0.6,0.6 -0.4,1c1.7,2.4 4.8,7.2 -0.7,8.9c-5.3,1.7 -15.2,-12.4 -11,-16.1c1.9,-1.4 3.6,-0.7 4.5,-0.3c0.5,0.2 1,0.2 1.5,0.1c1.2,-0.4 3.4,-1.2 5.1,-2.1c4.3,-2.2 5.3,-3.1 7.3,-4.6c2,-1.5 6.6,-5.2 10.3,-2c3.2,2.7 1.4,5.7 -0.3,6.9z" fill="#a59eb3" fill-rule="evenodd" stroke="#001026" stroke-width="1.2" stroke-linecap="round" stroke-linejoin="round"/><path d="M248.86448,192.63813c0.5,0.4 6.6,7.6 8.6,5.8c2.4,-2.1 5.7,-6.2 9.3,-2.9c3.6,3.3 -3.2,8.9 -6.1,10.4c-6.9,3.1 -12.5,-2.8 -13.7,-4.4c-1.2,-1.6 -3.3,-4.3 -3.3,-6.9c0.1,-2.8 3.5,-3.5 5.2,-2z" fill="#a59eb3" fill-rule="evenodd" stroke="#001026" stroke-width="1.2" stroke-linecap="round" stroke-linejoin="round"/><g fill="#a59eb3" fill-rule="evenodd"><path d="M248.96448,215.93813c2.1,1.9 6.7,5.8 6.7,5.8c0,0 14.3,-2.5 14.3,4.7c0,4.3 -7.2,5.3 -16.9,4.4c-0.6,-0.1 -1.2,-0.3 -1.7,-0.7c-2.2,-1.9 -8.5,-7.5 -12.5,-11.4c-5.9,-5.8 -10.8,-9.6 -10.8,-9.6c-8.5,-8.3 -1.6,-11.8 1.1,-16.6c2.5,-4.1 3.6,-3.3 9.6,-2.1c3.4,0.5 5.4,0.8 7.6,0.7c3.3,-0.1 2.7,4.7 1.8,7.2c0,0 -1.4,3.7 -2.7,5.6c-1.6,2.3 -2.8,3.8 -4,4.7z" stroke="#001026" stroke-width="1.2" stroke-linecap="round" stroke-linejoin="round"/><path d="M240.56448,208.53813c0,0 -1.5,-1.2 -3.1,-2.7c-2,-1.8 -4,-3.3 -2,-6.4c1.8,-2.4 3.5,-5.6 8,-2.7c4.3,2.7 2.4,5.2 2.4,5.2c-2.2,4.5 -5.3,6.6 -5.3,6.6z" stroke="none" stroke-width="1" stroke-linecap="butt" stroke-linejoin="miter"/></g><path d="M225.46448,200.33813c2.2,2.8 5.6,6.3 1.3,9.2c-5.9,3.3 -10.8,-6.7 -11.8,-10.2c-0.9,-3.1 1.7,-5.1 3.9,-6.8c4.3,-3.1 7.9,-5.9 11.9,-4.4c5,1.8 1.4,5.8 -1.1,7.6c-1.5,1.1 -3,2.3 -4.1,3c-0.3,0.5 -0.4,1.1 -0.1,1.6z" fill="#a59eb3" fill-rule="evenodd" stroke="#001026" stroke-width="1.2" stroke-linecap="round" stroke-linejoin="round"/><g fill-rule="evenodd"><path d="M256.96448,132.93813c0.3,-0.2 0.8,-0.1 0.9,0.3l2.6,10.7c0,0 6.4,4.7 8.3,8c3.2,5.5 3.3,10 3.3,10c0,0 7.1,2.1 8.3,7.8c1.2,5.7 -3.2,16.5 -22,20.2c-18.8,3.7 -33.9,-1.4 -41,-12.8c-7.1,-11.4 4.1,-25 3.5,-24.2l-2.1,-17.9c-0.1,-0.4 0.4,-0.7 0.8,-0.5l12.1,7.9c0,0 4.5,-1.7 9.2,-1.9c2.8,-0.2 5.2,0 7.5,0.4z" fill="#4a85ff" stroke="#001026" stroke-width="1.2" stroke-linecap="butt" stroke-linejoin="miter"/><path d="M271.76448,162.33813c0,0 6.9,1.8 8.1,7.5c1.2,5.7 -3.6,16 -22.2,19.6c-24.2,5 -35.7,-9.4 -29,-20c6.7,-10.7 18.2,-1.6 26.6,-2.2c7.2,-0.5 8,-6.8 16.5,-4.9z" fill="#4a85ff" stroke="none" stroke-width="1" stroke-linecap="butt" stroke-linejoin="miter"/><path d="M240.26448,173.03813c0,-0.4 0.4,-0.7 0.8,-0.6c1.9,0.7 7.3,2.3 13.3,2.7c5.4,0.3 8.6,0 10.1,-0.3c0.5,-0.1 0.9,0.4 0.7,0.9c-0.9,2.7 -4.7,10.2 -15.2,9.6c-9.1,-1 -10,-7.4 -9.7,-12.3z" fill="#ffffff" stroke="#001026" stroke-width="1.2" stroke-linecap="round" stroke-linejoin="round"/><path d="M290.16448,163.43813c-4.7,3.8 -11.9,3.9 -11.9,3.9" fill="none" stroke="#ff0000" stroke-width="1.2" stroke-linecap="round" stroke-linejoin="round"/><path d="M288.86448,174.63813c-6.3,0.5 -10.2,-1.4 -10.2,-1.4" fill="none" stroke="#ff0000" stroke-width="1.2" stroke-linecap="round" stroke-linejoin="round"/><path d="M254.86448,164.63813c2.1,0 4.3,0.2 4.4,0.9c0.1,1.4 -1.4,4.2 -3,4.3c-1.8,0.2 -6,-2.3 -6,-3.9c-0.1,-1.2 2.6,-1.3 4.6,-1.3z" fill="#001026" stroke="#001026" stroke-width="1.2" stroke-linecap="round" stroke-linejoin="round"/><path d="M209.86448,163.13813c0,0 8.6,2.8 12.1,5.9" fill="none" stroke="#ff0000" stroke-width="1.2" stroke-linecap="round" stroke-linejoin="round"/><path d="M222.26448,172.53813c-4.3,1.7 -11.7,0.6 -11.7,0.6" fill="none" stroke="#ff0000" stroke-width="1.2" stroke-linecap="round" stroke-linejoin="round"/><g><path d="M266.66448,152.93813c2.9,4.5 3,9.6 0.2,11.4c-2.8,1.8 -7.4,-0.3 -10.4,-4.8c-2.9,-4.5 -3,-9.6 -0.2,-11.4c2.8,-1.9 7.5,0.3 10.4,4.8z" fill="#000000" stroke="#001026" stroke-width="1.2" stroke-linecap="round" stroke-linejoin="round"/><path d="M266.26448,158.63813c0,1.1 -0.8,2 -1.8,2c-1,0 -1.8,-0.9 -1.8,-2c0,-1.1 0.8,-2 1.8,-2c1,0 1.8,0.9 1.8,2" fill="#001026" stroke="none" stroke-width="1" stroke-linecap="butt" stroke-linejoin="miter"/></g><g><path d="M241.86448,155.73813c3,4.4 2.8,9.8 0.1,11.7c-3.3,1.9 -7.7,0.5 -10.7,-3.9c-3.1,-4.4 -3.3,-10.1 -0.2,-12.3c3.1,-2.3 7.8,0.1 10.8,4.5z" fill="#000000" stroke="#001026" stroke-width="1.2" stroke-linecap="round" stroke-linejoin="round"/><path d="M241.26448,161.53813c0,1.1 -0.8,2 -1.8,2c-1,0 -1.8,-0.9 -1.8,-2c0,-1.1 0.8,-2 1.8,-2c1,0.1 1.8,0.9 1.8,2" fill="#d6ff00" stroke="none" stroke-width="1" stroke-linecap="butt" stroke-linejoin="miter"/></g></g><path d="M304.47526,181.83827l0.57443,-0.46887c2.94977,-4.89498 6.8715,-9.34059 10.43522,-13.79248c0.24318,-0.46212 0.6618,-0.91548 1.38241,-1.10697c0.44943,-0.17415 1.00362,-0.23748 1.61847,0.01601c0.63847,0.18615 1.03167,0.58181 1.27382,0.99855c0.48456,0.65584 0.49143,1.33062 0.35669,1.86921l-0.07954,1.2084c-1.65668,5.34279 -1.4263,9.58528 -1.34855,15.00893c0.02461,1.71619 1.17726,4.33205 -0.33811,5.13801c-1.91284,1.01736 -4.02281,0.70206 -6.064,-0.21246c-1.05558,1.16691 -2.24814,2.26369 -2.93265,3.39694c-2.67678,4.4316 -3.58645,9.66769 -6.70341,13.97059c-0.68901,0.95116 -1.43911,1.88787 -2.2122,2.82345c5.64044,4.76963 3.21585,16.24845 -1.45584,20.78061c-2.34936,2.2792 -3.82069,2.09951 -6.78877,2.62452c-1.60839,-0.24124 -3.65272,0.40343 -4.82517,-0.72372c-0.45319,-0.43568 -0.62025,-1.02072 -0.67426,-1.6648c-0.04564,-0.03203 -0.07011,-0.05159 -0.07011,-0.05159c-3.47157,-2.78411 -5.58616,-4.18915 -5.69026,-9.08017c-0.16166,-7.59544 6.82824,-14.1017 14.35606,-13.44342c1.13188,-1.38762 2.26145,-2.77101 3.30716,-4.19234c1.87232,-2.54486 3.11224,-5.71063 4.41537,-8.57397c1.2785,-2.8092 1.81671,-5.35619 4.10587,-7.63492c0.24282,-0.2417 0.5054,-0.46092 0.77829,-0.66825l-1.91384,-0.63795c-1.00459,-0.30895 -1.73937,-1.23392 -1.76351,-2.33404c-1.32547,-1.66737 0.25642,-3.24926 0.25642,-3.24926z" fill="#00fff1" fill-rule="nonzero" stroke="none" stroke-width="0.5" stroke-linecap="butt" stroke-linejoin="miter"/><path d="M166.87012,181.93751l2.51696,1.51675c1.86319,1.4889 8.47427,6.10899 6.45069,9.46193c-0.95784,1.5871 -3.56214,0.99809 -5.41739,1.25583c1.81275,5.29459 3.59028,10.66284 5.58186,15.90541c0.93595,-0.7586 2.17879,-1.15081 3.36486,-1.36469c6.29666,-1.13547 9.08468,4.28192 9.15037,9.58289c0.05377,4.33884 0.02111,8.68528 -0.09071,13.02253c-0.56372,0.9983 -1.12744,1.9966 -1.69116,2.9949l-2.18258,1.74428c0,0 -2.08012,1.38675 -3.46687,-0.69337c-0.17843,-0.26764 -0.29946,-0.52381 -0.37492,-0.76702c-0.9997,0.04762 -2.00464,0.13344 -2.96429,-0.11124c-1.11093,-0.28325 -2.01521,-1.09569 -2.9949,-1.69116c-1.01729,-0.61832 -2.23747,-1.02848 -2.99308,-1.94841c-3.54475,-4.3156 -0.57567,-10.0155 0.98145,-14.36082c0.0578,-0.16129 0.12851,-0.35186 0.20982,-0.56444c-2.76035,-6.76656 -5.07084,-13.81102 -7.45714,-20.72629c-1.53458,0.80048 -3.11703,1.45974 -5.00339,-0.3168c-1.8074,-1.70218 0.47483,-8.80314 1.18238,-11.20003c0.05533,-0.52203 0.27516,-1.10709 0.87712,-1.55072c0.35423,-0.32599 0.84655,-0.58386 1.51466,-0.57268c0.30209,-0.02769 0.57218,0.00261 0.8124,0.07191c1.02553,-0.26976 1.99385,0.31123 1.99385,0.31123z" fill="#00fff1" fill-rule="nonzero" stroke="none" stroke-width="0.5" stroke-linecap="butt" stroke-linejoin="miter"/><path d="M256.01924,174.65572l0.41565,0.20782c0.04262,0.01173 0.08239,0.02759 0.11933,0.04626c0.16567,0.06483 0.26879,0.17997 0.33298,0.29819c0.04188,0.05994 0.07779,0.12977 0.09927,0.20947c0.80982,1.6513 1.737,4.01111 3.39355,4.74504l0.67012,0.61569c0,0 0.53033,0.53033 0,1.06066c-0.53033,0.53033 -1.06066,0 -1.06066,0l-0.28028,-0.33471c-1.65995,-0.89234 -2.64718,-2.5884 -3.50872,-4.29693c-0.08455,0.23306 -0.14083,0.50352 -0.26988,0.69401c-0.22843,0.33716 -0.76461,0.32864 -1.05796,0.61114c-1.28629,1.23872 -1.42681,3.78383 -2.85129,5.22729c0,0 -0.34999,0.34999 -0.76564,0.197c0.04141,0.14712 0.15216,0.70284 -0.45581,0.92683c-0.70376,0.25928 -0.96303,-0.44448 -0.96303,-0.44448c-0.91209,-2.47569 -1.99053,-5.40285 -2.94272,-7.98738c-1.20603,1.58633 -3.74758,2.8055 -3.68192,5.3521c0,0 0,0.75 -0.75,0.75c-0.75,0 -0.75,-0.75 -0.75,-0.75c0.02822,-1.57928 1.1623,-3.54206 2.08291,-4.76512c0.60684,-0.80621 2.43331,-1.42984 2.19389,-1.88768l0.532,-0.32566c0.06401,-0.14746 0.19212,-0.28901 0.43392,-0.3781c0.31453,-0.11588 0.54027,-0.0394 0.69377,0.08065c0.11999,0.07424 0.23162,0.19191 0.2841,0.37844c2.48797,-1.16199 5.55684,-1.45763 8.08646,-0.23053z" fill="#000000" fill-rule="nonzero" stroke="none" stroke-width="0.5" stroke-linecap="butt" stroke-linejoin="miter"/><path d="M207.23163,133.29293c5.0688,-1.584 10.1376,-3.168 15.20639,-4.752c0,0 1.03111,-0.32222 2.28455,-0.18784c1.88405,-0.22803 3.67651,0.88158 5.47802,1.85911c0.12731,-0.00138 0.25453,-0.00076 0.38161,0.00193c1.75082,0.037 3.65914,-0.37319 5.23982,0.3806c3.62357,1.72801 4.32259,3.30983 4.83507,5.75038c2.91863,3.40097 -0.36176,6.68135 -0.36176,6.68135l-8.9427,-2.23834c0.00042,-0.05296 -0.00251,-0.10695 -0.00763,-0.16162c-1.21367,0.24739 -2.36401,-0.04722 -2.98873,-0.26743c-0.95979,0.62115 -1.68497,1.77726 -2.80479,1.99373l-2.30553,1.38332c-0.76679,0.4784 -1.67259,0.75482 -2.64295,0.75482c-0.28774,0 -0.56981,-0.02431 -0.84426,-0.07098c-0.75074,2.29871 -3.277,3.14079 -3.277,3.14079c-2.79712,0.82027 -3.92177,2.42593 -6.32992,4.11374c-1.46004,1.02331 -2.22026,0.95833 -3.19018,2.2983c-1.2341,1.70493 -2.08704,3.67568 -3.40072,5.32008c-0.92435,1.15705 -2.02358,2.32633 -2.34896,3.77109c-0.58759,2.60905 -0.58655,11.3009 -2.871,12.32157c-9.63502,4.30486 -13.39436,-7.35871 -12.62722,-13.77851c0.26706,-2.23487 1.12965,-4.36351 1.49967,-6.58365c2.28074,-7.99373 6.32856,-15.59538 14.06058,-19.53647c1.41519,-0.72134 4.07284,-1.62268 5.97611,-2.10216z" fill="#ff0000" fill-rule="nonzero" stroke="none" stroke-width="0.5" stroke-linecap="butt" stroke-linejoin="miter"/><path d="M281.28864,170.54655c-1.11803,2.23607 -3.3541,1.11803 -3.3541,1.11803l-1.3941,-0.7591c-3.61545,-2.8995 -7.11963,-5.4526 -11.10176,-7.87055c-2.18615,-1.32743 -5.10016,-1.49643 -7.24552,-2.92411c-4.02173,-2.67636 -7.3273,-6.81579 -10.46579,-10.399c-1.20324,-1.37374 -3.13591,-1.98019 -4.31729,-3.37278c-0.72448,-0.85399 -0.91219,-2.04563 -1.36828,-3.06845c0,0 -0.92848,-2.32119 1.39272,-3.24967c2.32119,-0.92848 3.24967,1.39272 3.24967,1.39272c0.79152,2.50237 2.94859,2.94023 4.76883,4.96357c2.93563,3.26319 5.79895,7.0904 9.4926,9.5594c2.01088,1.34416 4.91243,1.5317 7.01047,2.77829c4.18055,2.48395 7.91818,5.2627 11.70783,8.28624l0.5067,0.1913c0,0 2.23607,1.11803 1.11803,3.3541z" fill="#000000" fill-rule="nonzero" stroke="none" stroke-width="0.5" stroke-linecap="butt" stroke-linejoin="miter"/><path d="M210.6238,158.37492c0.8816,0 1.45231,0.31089 1.82177,0.7134c3.74429,0.4807 8.11643,0.70561 10.8756,3.34524c0.81364,0.77839 1.20104,1.90502 1.80156,2.85753c0,0 1.28624,2.14373 -0.85749,3.42997c-0.71424,0.42854 -1.33328,0.47634 -1.84129,0.34953c0.4109,0.38829 0.72202,0.98674 0.67593,1.90838c-0.03889,0.77781 -0.30797,1.30121 -0.66004,1.65322c0.75842,-0.04761 1.82513,0.17019 2.38515,1.57026c0.92848,2.32119 -1.39272,3.24967 -1.39272,3.24967c-3.02694,1.15884 -5.63025,1.06749 -8.80067,1.59589l-3.0574,0.00852c0,0 -2.5,0 -2.5,-2.5c0,-2.5 2.5,-2.5 2.5,-2.5l2.645,0.00852c2.04775,-0.34129 3.9062,-0.28482 5.78057,-0.73795c-1.50513,-0.07526 -3.01025,-0.15051 -4.51538,-0.22577l-4.51023,-0.22551c0,0 -2.49688,-0.12484 -2.37204,-2.62172c0.03786,-0.75719 0.29386,-1.27328 0.63221,-1.62486l-0.8535,-0.75933c0,0 -1.76777,-1.76777 0,-3.53553c0.56699,-0.56699 1.13397,-0.77027 1.64263,-0.78482l-1.89966,-2.67461c0,0 0,-2.5 2.5,-2.5zM220.83526,167.86356c-1.92056,-3.4664 -5.68681,-3.42904 -9.3584,-3.86972c0.2765,0.17751 0.43951,0.34051 0.43951,0.34051l-0.00633,0.09923c2.4055,1.45348 3.94761,2.08132 6.72796,2.52895c0,0 1.38586,0.23098 1.90657,1.38554c0.06598,0.0033 0.12719,0.00636 0.18327,0.00916c0,0 0.27259,0.01363 0.63313,0.12195c-0.34281,-0.3108 -0.5257,-0.61563 -0.5257,-0.61563z" fill="#66a2ff" fill-rule="nonzero" stroke="none" stroke-width="0.5" stroke-linecap="butt" stroke-linejoin="miter"/><path d="M292.70034,176.89868c-0.07297,0.07297 -0.14595,0.13992 -0.21879,0.20122c-0.04504,2.43181 -2.49937,2.43181 -2.49937,2.43181l-2.3118,-0.03402c-2.78094,-0.46349 -5.32051,-0.92547 -8.1426,-0.91638c0,0 -2.5,0 -2.5,-2.5c0,-1.18769 0.56424,-1.81114 1.15661,-2.1384c-0.59237,-0.32726 -1.15661,-0.95071 -1.15661,-2.1384c0,-2.5 2.5,-2.5 2.5,-2.5c0.54331,0.00151 1.10008,0.00506 1.66467,0.01293c-0.22946,-0.11625 -0.45228,-0.28312 -0.65323,-0.51777c-0.3478,-0.32994 -0.63179,-0.80313 -0.66844,-1.47603c-0.108,-0.66519 0.06831,-1.18813 0.33757,-1.58478c0.36218,-0.67442 0.94455,-0.97099 1.46457,-1.0952l2.40841,-0.94909c1.48268,-0.18096 2.83861,-0.78809 4.17988,-1.52566l-0.31598,-0.39498l2.36045,-1.88836c0.43024,-0.35027 0.97924,-0.56027 1.57729,-0.56027c1.38071,0 2.5,1.11929 2.5,2.5v2.8512h-0.03678l0.03367,0.12453c-0.11172,1.12125 -0.42332,6.83741 -1.44432,8.84733c0.4131,0.56991 1.10498,1.9101 -0.23521,3.25029z" fill="#66a2ff" fill-rule="nonzero" stroke="none" stroke-width="0.5" stroke-linecap="butt" stroke-linejoin="miter"/><path d="M209.8242,164.67652c0,-1.75 1.75,-1.75 1.75,-1.75l0.89964,0.05225c1.84528,0.46132 4.32932,0.71187 6.03006,1.54321c1.1694,0.57161 2.20469,1.49468 3.47394,1.78319c0,0 1.69775,0.42444 1.27331,2.12219c-0.42444,1.69775 -2.12219,1.27331 -2.12219,1.27331c-1.48057,-0.39386 -2.76628,-1.31878 -4.12926,-2.01841c-1.45169,-0.74516 -3.78734,-0.91114 -5.37473,-1.30799l-0.05076,0.05225c0,0 -1.75,0 -1.75,-1.75z" fill="#ff0000" fill-rule="nonzero" stroke="none" stroke-width="0.5" stroke-linecap="butt" stroke-linejoin="miter"/><path d="M209.82618,174.26375c-0.08324,-1.74802 1.66478,-1.83126 1.66478,-1.83126c2.33069,-0.11099 7.6485,-0.36421 9.9792,-0.4752c0,0 1.74802,-0.08324 1.83126,1.66478c0.08324,1.74802 -1.66478,1.83126 -1.66478,1.83126c-2.33069,0.11099 -4.66138,0.22197 -6.99208,0.33296l-2.98712,0.14224c0,0 -1.74802,0.08324 -1.83126,-1.66478z" fill="#ff0000" fill-rule="nonzero" stroke="none" stroke-width="0.5" stroke-linecap="butt" stroke-linejoin="miter"/><path d="M292.20737,175.13091c0,1.75 -1.75,1.75 -1.75,1.75h-0.4752c-3.8501,0 -7.61762,0.45172 -11.4048,0.4752c0,0 -1.75,0 -1.75,-1.75c0,-1.75 1.75,-1.75 1.75,-1.75c3.7547,0.02918 7.57684,-0.4752 11.4048,-0.4752h0.4752c0,0 1.75,0 1.75,1.75z" fill="#ff0000" fill-rule="nonzero" stroke="none" stroke-width="0.5" stroke-linecap="butt" stroke-linejoin="miter"/><path d="M293.15777,169.42852c0,1.75 -1.75,1.75 -1.75,1.75h-1.4256c-3.6559,-0.02841 -8.39064,-0.01519 -11.93076,0.89815c0,0 -1.69775,0.42444 -2.12219,-1.27331c-0.42444,-1.69775 1.27331,-2.12219 1.27331,-2.12219c3.88363,-0.94605 8.77325,-0.97781 12.77963,-1.00265h1.4256c0,0 1.75,0 1.75,1.75z" fill="#ff0000" fill-rule="nonzero" stroke="none" stroke-width="0.5" stroke-linecap="butt" stroke-linejoin="miter"/></g></g></svg>