<svg version="1.1" xmlns="http://www.w3.org/2000/svg" xmlns:xlink="http://www.w3.org/1999/xlink" width="95.17898" height="99.84079" viewBox="0,0,95.17898,99.84079"><defs><linearGradient x1="256.77549" y1="218.53864" x2="256.77549" y2="230.04895" gradientUnits="userSpaceOnUse" id="color-1"><stop offset="0" stop-color="#de00ff"/><stop offset="1" stop-color="#0054ff"/></linearGradient><linearGradient x1="257.83492" y1="221.0793" x2="257.83492" y2="227.36458" gradientUnits="userSpaceOnUse" id="color-2"><stop offset="0" stop-color="#de00ff"/><stop offset="1" stop-color="#0054ff"/></linearGradient><linearGradient x1="208.0074" y1="211.85957" x2="208.0074" y2="229.86878" gradientUnits="userSpaceOnUse" id="color-3"><stop offset="0" stop-color="#de00ff"/><stop offset="1" stop-color="#0054ff"/></linearGradient></defs><g transform="translate(-192.32101,-130.50077)"><g data-paper-data="{&quot;isPaintingLayer&quot;:true}" stroke-miterlimit="10" stroke-dasharray="" stroke-dashoffset="0" style="mix-blend-mode: normal"><g fill="#ffffff" fill-rule="evenodd"><path d="M224.7,201.1c0.8,0.4 2.5,1.3 0.1,4.7c-2.4,3.4 -9.3,4.1 -10.1,4.1c-3.1,0.1 -6.9,0.1 -11.1,-1.3c-12.2,-4 -12.3,-17.1 -8.4,-19.2c3.8,-2.1 5.5,6 11,10.9c2.4,2.2 5.3,3 7.7,3.5c3.4,0.6 9.9,-3.2 10.8,-2.7z" stroke="#001026" stroke-width="1.2" stroke-linecap="round" stroke-linejoin="round"/><path d="M199.9,193c1.6,2.7 4.7,6.5 4.7,6.5c0,0 -3.7,-0.9 -5.8,0.8c-1.7,1.3 -1.3,3.5 -1.1,4.2c-1.3,-1.3 -2.9,-3.1 -3.9,-6.6c-1,-3.5 0,-7.7 2,-8.3c2,-0.4 2.5,1.1 4.1,3.4z" stroke="none" stroke-width="1" stroke-linecap="butt" stroke-linejoin="miter"/></g><path d="M229.7,211.5c-1.8,1.2 -8,5.6 -15.9,8.1l-0.4,0.1c-0.4,0.1 -0.6,0.6 -0.4,1c1.7,2.4 4.8,7.2 -0.7,8.9c-5.3,1.7 -15.2,-12.4 -11,-16.1c1.9,-1.4 3.6,-0.7 4.5,-0.3c0.5,0.2 1,0.2 1.5,0.1c1.2,-0.4 3.4,-1.2 5.1,-2.1c4.3,-2.2 5.3,-3.1 7.3,-4.6c2,-1.5 6.6,-5.2 10.3,-2c3.2,2.7 1.4,5.7 -0.3,6.9z" fill="#ffffff" fill-rule="evenodd" stroke="#001026" stroke-width="1.2" stroke-linecap="round" stroke-linejoin="round"/><path d="M245.6,190.7c0.5,0.4 6.6,7.6 8.6,5.8c2.4,-2.1 5.7,-6.2 9.3,-2.9c3.6,3.3 -3.2,8.9 -6.1,10.4c-6.9,3.1 -12.5,-2.8 -13.7,-4.4c-1.2,-1.6 -3.3,-4.3 -3.3,-6.9c0.1,-2.8 3.5,-3.5 5.2,-2z" fill="#ffffff" fill-rule="evenodd" stroke="#001026" stroke-width="1.2" stroke-linecap="round" stroke-linejoin="round"/><g fill="#ffffff" fill-rule="evenodd"><path d="M245.7,214c2.1,1.9 6.7,5.8 6.7,5.8c0,0 14.3,-2.5 14.3,4.7c0,4.3 -7.2,5.3 -16.9,4.4c-0.6,-0.1 -1.2,-0.3 -1.7,-0.7c-2.2,-1.9 -8.5,-7.5 -12.5,-11.4c-5.9,-5.8 -10.8,-9.6 -10.8,-9.6c-8.5,-8.3 -1.6,-11.8 1.1,-16.6c2.5,-4.1 3.6,-3.3 9.6,-2.1c3.4,0.5 5.4,0.8 7.6,0.7c3.3,-0.1 2.7,4.7 1.8,7.2c0,0 -1.4,3.7 -2.7,5.6c-1.6,2.3 -2.8,3.8 -4,4.7z" stroke="#001026" stroke-width="1.2" stroke-linecap="round" stroke-linejoin="round"/><path d="M237.3,206.6c0,0 -1.5,-1.2 -3.1,-2.7c-2,-1.8 -4,-3.3 -2,-6.4c1.8,-2.4 3.5,-5.6 8,-2.7c4.3,2.7 2.4,5.2 2.4,5.2c-2.2,4.5 -5.3,6.6 -5.3,6.6z" stroke="none" stroke-width="1" stroke-linecap="butt" stroke-linejoin="miter"/></g><path d="M222.2,198.4c2.2,2.8 5.6,6.3 1.3,9.2c-5.9,3.3 -10.8,-6.7 -11.8,-10.2c-0.9,-3.1 1.7,-5.1 3.9,-6.8c4.3,-3.1 7.9,-5.9 11.9,-4.4c5,1.8 1.4,5.8 -1.1,7.6c-1.5,1.1 -3,2.3 -4.1,3c-0.3,0.5 -0.4,1.1 -0.1,1.6z" fill="#ffffff" fill-rule="evenodd" stroke="#001026" stroke-width="1.2" stroke-linecap="round" stroke-linejoin="round"/><g fill-rule="evenodd"><path d="M253.7,131c0.3,-0.2 0.8,-0.1 0.9,0.3l2.6,10.7c0,0 6.4,4.7 8.3,8c3.2,5.5 3.3,10 3.3,10c0,0 7.1,2.1 8.3,7.8c1.2,5.7 -3.2,16.5 -22,20.2c-18.8,3.7 -33.9,-1.4 -41,-12.8c-7.1,-11.4 4.1,-25 3.5,-24.2l-2.1,-17.9c-0.1,-0.4 0.4,-0.7 0.8,-0.5l12.1,7.9c0,0 4.5,-1.7 9.2,-1.9c2.8,-0.2 5.2,0 7.5,0.4z" fill="#ffffff" stroke="#001026" stroke-width="1.2" stroke-linecap="butt" stroke-linejoin="miter"/><path d="M268.5,160.4c0,0 6.9,1.8 8.1,7.5c1.2,5.7 -3.6,16 -22.2,19.6c-24.2,5 -35.7,-9.4 -29,-20c6.7,-10.7 18.2,-1.6 26.6,-2.2c7.2,-0.5 8,-6.8 16.5,-4.9z" fill="#ffffff" stroke="none" stroke-width="1" stroke-linecap="butt" stroke-linejoin="miter"/><path d="M237,171.1c0,-0.4 0.4,-0.7 0.8,-0.6c1.9,0.7 7.3,2.3 13.3,2.7c5.4,0.3 8.6,0 10.1,-0.3c0.5,-0.1 0.9,0.4 0.7,0.9c-0.9,2.7 -4.7,10.2 -15.2,9.6c-9.1,-1 -10,-7.4 -9.7,-12.3z" fill="#ffffff" stroke="#001026" stroke-width="1.2" stroke-linecap="round" stroke-linejoin="round"/><path d="M286.9,161.5c-4.7,3.8 -11.9,3.9 -11.9,3.9" fill="none" stroke="#001026" stroke-width="1.2" stroke-linecap="round" stroke-linejoin="round"/><path d="M285.59999,172.7c-6.3,0.5 -10.2,-1.4 -10.2,-1.4" fill="none" stroke="#001026" stroke-width="1.2" stroke-linecap="round" stroke-linejoin="round"/><path d="M251.6,162.7c2.1,0 4.3,0.2 4.4,0.9c0.1,1.4 -1.4,4.2 -3,4.3c-1.8,0.2 -6,-2.3 -6,-3.9c-0.1,-1.2 2.6,-1.3 4.6,-1.3z" fill="#001026" stroke="#001026" stroke-width="1.2" stroke-linecap="round" stroke-linejoin="round"/><path d="M206.6,161.2c0,0 8.6,2.8 12.1,5.9" fill="none" stroke="#001026" stroke-width="1.2" stroke-linecap="round" stroke-linejoin="round"/><path d="M219,170.6c-4.3,1.7 -11.7,0.6 -11.7,0.6" fill="none" stroke="#001026" stroke-width="1.2" stroke-linecap="round" stroke-linejoin="round"/><g><path d="M263.4,151c2.9,4.5 3,9.6 0.2,11.4c-2.8,1.8 -7.4,-0.3 -10.4,-4.8c-2.9,-4.5 -3,-9.6 -0.2,-11.4c2.8,-1.9 7.5,0.3 10.4,4.8z" fill="#000000" stroke="#001026" stroke-width="1.2" stroke-linecap="round" stroke-linejoin="round"/><path d="M263,156.7c0,1.1 -0.8,2 -1.8,2c-1,0 -1.8,-0.9 -1.8,-2c0,-1.1 0.8,-2 1.8,-2c1,0 1.8,0.9 1.8,2" fill="#001026" stroke="none" stroke-width="1" stroke-linecap="butt" stroke-linejoin="miter"/></g><g><path d="M238.6,153.8c3,4.4 2.8,9.8 0.1,11.7c-3.3,1.9 -7.7,0.5 -10.7,-3.9c-3.1,-4.4 -3.3,-10.1 -0.2,-12.3c3.1,-2.3 7.8,0.1 10.8,4.5z" fill="#000000" stroke="#001026" stroke-width="1.2" stroke-linecap="round" stroke-linejoin="round"/><path d="M238,159.6c0,1.1 -0.8,2 -1.8,2c-1,0 -1.8,-0.9 -1.8,-2c0,-1.1 0.8,-2 1.8,-2c1,0.1 1.8,0.9 1.8,2" fill="#001026" stroke="none" stroke-width="1" stroke-linecap="butt" stroke-linejoin="miter"/></g></g><path d="M242.18695,171.47523c1.24236,0.13804 1.10432,1.38039 1.10432,1.38039l-0.19913,1.79209c-0.25039,2.23749 -0.26843,4.37805 -0.26843,6.62346c0,0 0,1.25 -1.25,1.25c-1.25,0 -1.25,-1.25 -1.25,-1.25c0,-2.33733 0.02656,-4.56934 0.28372,-6.89954l0.19913,-1.79209c0,0 0.13804,-1.24235 1.38039,-1.10431z" fill="#000000" fill-rule="nonzero" stroke="none" stroke-width="0.5" stroke-linecap="butt" stroke-linejoin="miter"/><path d="M246.32571,172.41799c1.25,0 1.25,1.25 1.25,1.25c0,2.6928 0,6.81119 0,9.504c0,0 0,1.25 -1.25,1.25c-1.25,0 -1.25,-1.25 -1.25,-1.25c0,-2.6928 0,-5.38559 0,-8.07839v-1.4256c0,0 0,-1.25 1.25,-1.25z" fill="#000000" fill-rule="nonzero" stroke="none" stroke-width="0.5" stroke-linecap="butt" stroke-linejoin="miter"/><path d="M251.55291,172.41799c1.25,0 1.25,1.25 1.25,1.25c0,2.5 0,6.0536 0,8.5536c0,0 0,1.25 -1.25,1.25c-1.25,0 -1.25,-1.25 -1.25,-1.25c0,-2.5 0,-5 0,-7.5v-1.0536c0,0 0,-1.25 1.25,-1.25z" fill="#000000" fill-rule="nonzero" stroke="none" stroke-width="0.5" stroke-linecap="butt" stroke-linejoin="miter"/><path d="M256.4805,173.66798c0,-0.69036 0.55964,-1.25 1.25,-1.25c0.69036,0 1.25,0.55964 1.25,1.25c0,0.1676 -0.03298,0.3275 -0.09282,0.47355c0.09282,0.25602 0.09282,0.47685 0.09282,0.47685c0,1.4256 0,3.3264 0,4.752c0,0 0,1.25 -1.25,1.25c-1.25,0 -1.25,-1.25 -1.25,-1.25c0,-1.4256 0,-2.8512 0,-4.2768v-0.4752c0,0 0,-0.22083 0.09282,-0.47685c-0.05983,-0.14605 -0.09282,-0.30595 -0.09282,-0.47355z" fill="#000000" fill-rule="nonzero" stroke="none" stroke-width="0.5" stroke-linecap="butt" stroke-linejoin="miter"/><path d="M256.4805,154.65999c0,-0.69036 0.55964,-1.25 1.25,-1.25c0.69036,0 1.25,0.55964 1.25,1.25c0,0.69036 -0.55964,1.25 -1.25,1.25c-0.69036,0 -1.25,-0.55964 -1.25,-1.25z" fill="#00fff3" fill-rule="nonzero" stroke="none" stroke-width="0.5" stroke-linecap="butt" stroke-linejoin="miter"/><path d="M224.16692,201.70478l0.06415,-0.07991c-0.1865,-0.57769 -0.17962,-1.20371 -0.24188,-1.81134c-0.01271,-0.03441 -0.02563,-0.06857 -0.03876,-0.10245c-0.22792,0.24166 -0.5511,0.3925 -0.90951,0.3925c-0.69036,0 -1.25,-0.55964 -1.25,-1.25c0,-0.59167 0.41107,-1.08731 0.96319,-1.21694c-0.01804,-0.06563 -0.02347,-0.13481 -0.01279,-0.20866c0.06053,-0.41866 0.19173,-0.75141 0.37239,-1.02455c0.15358,-0.35245 0.36018,-0.67551 0.62192,-0.9399c0.2258,-0.22808 0.55973,-0.24852 0.92176,-0.21137c0.63459,-0.30084 1.29779,-0.57413 1.77644,-1.08406c0,0 0.31214,-0.31214 0.75094,-0.37994c0.78347,-1.84098 1.13159,-4.20218 2.7006,-5.43195c2.43774,-1.91068 7.17722,-0.56074 9.70763,0.28273c0.67859,0.22619 4.29584,0.8569 4.6124,1.1222c1.5838,1.32732 0.73583,2.21098 0.97817,3.66503c0.26471,1.58827 0.77427,2.98879 0.4752,4.67726c-0.44995,2.54023 -2.34847,3.27979 -3.49694,5.20893c-0.64259,1.07938 -0.90443,2.81903 -1.30306,4.01492l-1.66106,0.85471c0,0 -1.16337,0 -1.24544,-1.12233c-0.32228,0.17193 -0.65536,0.17193 -0.65536,0.17193c-3.168,0 -6.33599,0 -9.504,0h-1.33879c-0.40759,0.04263 -0.69394,-0.08746 -0.89272,-0.26694c-0.2155,-0.1601 -0.3996,-0.41623 -0.43712,-0.82597c-0.1947,-1.00916 -0.31125,-2.2232 -0.48207,-3.41627c-0.47531,-0.36154 -0.47531,-1.01761 -0.47531,-1.01761z" fill="#006cff" fill-rule="nonzero" stroke="none" stroke-width="0.5" stroke-linecap="butt" stroke-linejoin="miter"/><path d="M243.78208,193.54256c0.32816,-0.65632 0.84896,-0.73472 1.22315,-0.68754c-0.28624,-0.59285 -0.51616,-1.22732 -0.989,-1.67115c0,0 -0.88388,-0.88388 0,-1.76776c0.88388,-0.88388 1.76776,0 1.76776,0c1.65541,1.7247 2.77641,4.97487 5.29687,5.90663c0.97248,0.35951 2.19599,0.52108 2.85008,1.30152c0.60118,-0.00013 0.99796,0.52893 0.99796,0.52893c1.09425,1.46319 2.28927,2.71726 3.29307,4.23431c0.41086,0.62093 1.42678,1.14863 1.22764,1.86606c-0.62226,2.24182 -2.52806,2.09485 -4.09511,2.07723c-0.02305,0.00285 -0.04612,0.00558 -0.06922,0.0082c-0.29564,0.57752 -0.73505,1.03961 -1.35322,1.32225c-0.93865,0.42917 -1.96884,0.1628 -2.90878,-0.17147l-0.69642,-0.09949l0.00458,-0.03208c-0.05865,-0.00083 -0.11733,-0.00243 -0.17604,-0.00484c-1.79794,-0.07364 -3.00453,-1.18419 -3.78872,-2.65366c-1.29576,-0.45792 -1.86967,-1.32979 -3.28745,-1.75944l-0.85472,-1.66106c0,0 0,-1.25 1.25,-1.25c0.62794,0 0.94043,0.31544 1.09595,0.6294c0.16662,-0.13139 0.35661,-0.26698 0.57198,-0.40689c-0.04616,-0.48176 -0.06672,-0.93798 -0.06672,-1.34851v-1.39503c-0.28947,-0.22894 -0.4752,-0.58327 -0.4752,-0.98098c0,-0.06856 0.00552,-0.13582 0.01614,-0.20138l-0.27555,-0.10619c0,0 -1.11803,-0.55901 -0.55902,-1.67705z" fill="#006cff" fill-rule="nonzero" stroke="none" stroke-width="0.5" stroke-linecap="butt" stroke-linejoin="miter"/><path d="M222.26612,198.37838c0,-0.69036 0.55964,-1.25 1.25,-1.25c0.69036,0 1.25,0.55964 1.25,1.25c0,0.69036 -0.55964,1.25 -1.25,1.25c-0.69036,0 -1.25,-0.55964 -1.25,-1.25z" fill="#006cff" fill-rule="nonzero" stroke="none" stroke-width="0.5" stroke-linecap="butt" stroke-linejoin="miter"/><path d="M217.85596,191.50264c0.0134,-0.00444 0.02597,-0.00862 0.03767,-0.01252c0,0 0.01349,-0.00449 0.03806,-0.01109c0.01999,-0.05026 0.03975,-0.10081 0.05931,-0.15161c-0.13719,0.07091 -0.27468,0.1414 -0.41104,0.21323c0.0908,-0.01385 0.18281,-0.0265 0.27599,-0.03802zM229.42297,191.72873c-0.21094,0.61399 -0.87518,0.95915 -1.31277,1.43872c-0.88996,0.59331 -1.59135,1.45181 -2.51132,1.99744c-0.51325,0.30441 -1.11917,0.41576 -1.68748,0.59774c-0.51999,0.16651 -1.73873,0.08835 -1.52737,0.59178c0.11293,0.26899 0.62479,0.16326 0.7698,0.4164c0.88014,1.53639 0.68102,4.48219 -0.65463,5.81784c-0.48695,0.48695 -1.26789,0.53941 -1.9142,0.77717c-4.65859,1.71377 -9.12638,-0.61294 -9.67789,-5.38191c-0.77072,-0.48479 -0.45684,-1.42642 -0.45684,-1.42642l0.4272,-1.23054c0.14255,-3.07393 2.51893,-4.21435 4.85349,-5.61509c0.71013,-0.42607 1.56369,-0.66058 2.14928,-1.24617c0.71726,-0.71726 0.7895,-2.02206 1.65231,-2.55543c3.32056,-2.05266 7.79474,0.22409 11.03165,1.30306c0,0 1.18585,0.39529 0.79057,1.58114c-0.39529,1.18586 -1.58113,0.79057 -1.58113,0.79057c-0.07262,-0.0242 -0.14533,-0.04883 -0.21814,-0.07382c0.19769,0.56986 0.18528,1.29249 -0.13252,2.21752z" fill="#006cff" fill-rule="nonzero" stroke="none" stroke-width="0.5" stroke-linecap="butt" stroke-linejoin="miter"/><path d="M239.67291,207.10757c0,0 1.25,0 1.25,1.25c0,0.28519 -0.06507,0.5053 -0.1655,0.6752c0.73152,-0.23967 1.29018,0.41211 1.29018,0.41211c1.5746,1.83704 3.54323,3.68082 4.88093,5.69442c0.44267,0.66634 1.44225,1.44696 1.06334,2.15151c-0.50973,0.9478 -1.89403,1.07902 -2.93902,1.33618c-1.21511,0.29903 -2.5199,-0.21335 -3.7541,-0.00678c-1.71937,0.28778 -3.0615,1.58315 -4.95538,0.87139c-2.79336,-1.0498 -4.6382,-5.09967 -6.59026,-7.36911c-1.59268,0.74352 -3.85937,1.02512 -5.00304,1.98046c-1.94209,1.62228 -4.74722,6.66954 -8.14243,4.77266c-1.12399,-0.62796 -1.51897,-3.37854 -1.84956,-4.3373c-0.29209,-0.8471 -1.62252,-1.04906 -1.9008,-1.9008c-0.87793,-2.68706 1.14691,-3.71105 2.98166,-4.92765c2.41906,-0.7889 4.52853,-0.43483 7.04686,-0.26694l2.13908,0.14261c0,0 0.12005,0.008 0.28319,0.05629c0.35,-0.53426 1.05926,-0.53426 1.05926,-0.53426c2.59425,0 5.0847,0.21149 7.60154,0.35229c1.88272,-0.1408 3.74366,-0.35229 5.70406,-0.35229z" fill="#000000" fill-rule="nonzero" stroke="none" stroke-width="0.5" stroke-linecap="butt" stroke-linejoin="miter"/><path d="M247.10847,229.35018c-0.55901,-1.11803 0.55902,-1.67705 0.55902,-1.67705l0.62553,-0.24105c2.31611,-2.17405 -0.49538,-6.01456 1.4256,-8.07839c0.48558,-0.52168 1.41522,-0.18797 2.10926,-0.34998c3.18179,-0.74276 5.84542,-0.60399 8.95405,0.4752c1.51362,-0.01994 3.74355,-0.39173 4.96046,0.82518c1.43101,1.43101 0.96535,7.76754 -0.6282,9.02593c-0.36424,0.28763 -2.92158,0.23595 -3.58209,0.23595c-3.96,0 -7.91999,0 -11.88,0c0,0 -0.08465,-0.00001 -0.20991,-0.02204l-0.65667,0.36527c0,0 -1.11804,0.55902 -1.67705,-0.55902zM251.49889,227.06597c2.8692,0 5.7384,0 8.60761,0c0.49204,0 3.26208,0.39588 3.54591,0.23594c0.59171,-0.33344 -0.13943,-1.36743 -0.02777,-2.03737c0.0968,-0.58081 1.03738,-2.50528 0.34997,-3.19268c-0.45538,-0.45538 -3.12023,-0.12053 -3.59314,-0.12523c-3.13058,-1.01066 -5.03536,-0.65532 -8.15315,-0.4752c-0.273,0.01577 -0.49836,-0.47424 -0.74194,-0.34998c-0.19414,0.09904 0.32624,0.32745 0.36612,0.54171c0.17389,0.93436 0.00502,1.90081 0,2.8512c-0.0055,1.03978 -0.09031,1.83168 -0.35362,2.5516z" fill="url(#color-1)" fill-rule="nonzero" stroke="none" stroke-width="0.5" stroke-linecap="butt" stroke-linejoin="miter"/><path d="M251.80257,224.51682c0.00502,-0.95039 0.17785,-1.93895 0.00397,-2.87331c-0.03987,-0.21427 -0.55921,-0.44495 -0.36507,-0.544c0.24358,-0.12427 0.46898,0.36567 0.74198,0.3499c3.11778,-0.18012 5.10475,-0.54674 8.23534,0.46392c0.47291,0.00469 3.14766,-0.31337 3.60303,0.14201c0.68741,0.68741 -0.25116,2.63726 -0.34796,3.21807c-0.11166,0.66995 0.61446,1.71847 0.02275,2.0519c-0.28383,0.15994 -3.06685,-0.22028 -3.55889,-0.22028c-2.86921,0 -5.81522,-0.01858 -8.68443,-0.01858c0.26331,-0.71992 0.34379,-1.52985 0.34929,-2.56963z" data-paper-data="{&quot;noHover&quot;:false,&quot;origItem&quot;:[&quot;Path&quot;,{&quot;applyMatrix&quot;:true,&quot;segments&quot;:[[[251.49889,227.06597],[0.26331,-0.71992],[2.8692,0]],[[260.1065,227.06597],[-2.86921,0],[0.49204,0]],[[263.65241,227.30191],[-0.28383,0.15994],[0.59171,-0.33344]],[[263.62464,225.26454],[-0.11166,0.66995],[0.0968,-0.58081]],[[263.97461,222.07185],[0.68741,0.68741],[-0.45538,-0.45538]],[[260.38148,221.94663],[0.47291,0.00469],[-3.13058,-1.01066]],[[252.22833,221.47143],[3.11778,-0.18012],[-0.273,0.01577]],[[251.48639,221.12145],[0.24358,-0.12427],[-0.19414,0.09904]],[[251.85251,221.66317],[-0.03987,-0.21427],[0.17389,0.93436]],[[251.85251,224.51437],[0.00502,-0.95039],[-0.0055,1.03978]]],&quot;closed&quot;:true}]}" fill="url(#color-2)" fill-rule="nonzero" stroke="none" stroke-width="0.5" stroke-linecap="butt" stroke-linejoin="miter"/><path d="M203.08252,211.85957c0.35539,0 0.60973,0.10104 0.79177,0.24567c0.91928,0.2281 2.01587,0.6226 2.45472,0.76888c0,0 1.07022,0.35674 0.83835,1.40912l0.35621,1.06862c1.09455,1.03023 1.44872,1.44833 2.9705,1.99153c1.09283,1.53103 1.77584,3.0566 2.68057,4.61302c0.97764,1.68184 2.69298,1.57113 2.08019,4.11841c-0.22647,0.94139 -0.25698,2.48732 -1.21323,2.63923c-0.19902,0.03162 -0.38966,0.01858 -0.57367,-0.02847c-0.22979,0.34708 -0.57503,0.64141 -1.06941,0.84695c-0.2669,0.11096 -0.57188,0.00183 -0.89099,-0.21134c-1.26444,1.45576 -3.67374,-0.3842 -4.46548,-0.98895c-3.08373,-2.35541 -5.04818,-5.1225 -5.66857,-8.84485c-0.18026,-1.08154 -1.47658,-2.83519 -0.15588,-3.92914c0.07771,-0.99114 0.3087,-2.05246 0.66161,-2.77422c0.09296,-0.37037 0.3711,-0.92446 1.20334,-0.92446zM210.83917,222.73935c-0.18688,-0.30335 -0.36326,-0.61636 -0.53448,-0.9337c0.03487,0.10717 0.07155,0.21696 0.11028,0.32955c0.06933,0.20154 0.22266,0.40294 0.4242,0.60414z" fill="url(#color-3)" fill-rule="nonzero" stroke="none" stroke-width="0.5" stroke-linecap="butt" stroke-linejoin="miter"/></g></g></svg>