<svg version="1.1" xmlns="http://www.w3.org/2000/svg" xmlns:xlink="http://www.w3.org/1999/xlink" width="95.17898" height="103.01746" viewBox="0,0,95.17898,103.01746"><g transform="translate(-192.32102,-127.32411)"><g data-paper-data="{&quot;isPaintingLayer&quot;:true}" stroke-miterlimit="10" stroke-dasharray="" stroke-dashoffset="0" style="mix-blend-mode: normal"><g><g fill-rule="evenodd"><path d="M224.7,201.1c0.8,0.4 2.5,1.3 0.1,4.7c-2.4,3.4 -9.3,4.1 -10.1,4.1c-3.1,0.1 -6.9,0.1 -11.1,-1.3c-12.2,-4 -12.3,-17.1 -8.4,-19.2c3.8,-2.1 5.5,6 11,10.9c2.4,2.2 5.3,3 7.7,3.5c3.4,0.6 9.9,-3.2 10.8,-2.7z" fill="#ffab19" stroke="#001026" stroke-width="1.2" stroke-linecap="round" stroke-linejoin="round"/><path d="M199.9,193c1.6,2.7 4.7,6.5 4.7,6.5c0,0 -3.7,-0.9 -5.8,0.8c-1.7,1.3 -1.3,3.5 -1.1,4.2c-1.3,-1.3 -2.9,-3.1 -3.9,-6.6c-1,-3.5 0,-7.7 2,-8.3c2,-0.4 2.5,1.1 4.1,3.4z" fill="#ffffff" stroke="none" stroke-width="1" stroke-linecap="butt" stroke-linejoin="miter"/></g><path d="M229.7,211.5c-1.8,1.2 -8,5.6 -15.9,8.1l-0.4,0.1c-0.4,0.1 -0.6,0.6 -0.4,1c1.7,2.4 4.8,7.2 -0.7,8.9c-5.3,1.7 -15.2,-12.4 -11,-16.1c1.9,-1.4 3.6,-0.7 4.5,-0.3c0.5,0.2 1,0.2 1.5,0.1c1.2,-0.4 3.4,-1.2 5.1,-2.1c4.3,-2.2 5.3,-3.1 7.3,-4.6c2,-1.5 6.6,-5.2 10.3,-2c3.2,2.7 1.4,5.7 -0.3,6.9z" fill="#ffab19" fill-rule="evenodd" stroke="#001026" stroke-width="1.2" stroke-linecap="round" stroke-linejoin="round"/><path d="M245.6,190.7c0.5,0.4 6.6,7.6 8.6,5.8c2.4,-2.1 5.7,-6.2 9.3,-2.9c3.6,3.3 -3.2,8.9 -6.1,10.4c-6.9,3.1 -12.5,-2.8 -13.7,-4.4c-1.2,-1.6 -3.3,-4.3 -3.3,-6.9c0.1,-2.8 3.5,-3.5 5.2,-2z" fill="#ffab19" fill-rule="evenodd" stroke="#001026" stroke-width="1.2" stroke-linecap="round" stroke-linejoin="round"/><g fill-rule="evenodd"><path d="M245.7,214c2.1,1.9 6.7,5.8 6.7,5.8c0,0 14.3,-2.5 14.3,4.7c0,4.3 -7.2,5.3 -16.9,4.4c-0.6,-0.1 -1.2,-0.3 -1.7,-0.7c-2.2,-1.9 -8.5,-7.5 -12.5,-11.4c-5.9,-5.8 -10.8,-9.6 -10.8,-9.6c-8.5,-8.3 -1.6,-11.8 1.1,-16.6c2.5,-4.1 3.6,-3.3 9.6,-2.1c3.4,0.5 5.4,0.8 7.6,0.7c3.3,-0.1 2.7,4.7 1.8,7.2c0,0 -1.4,3.7 -2.7,5.6c-1.6,2.3 -2.8,3.8 -4,4.7z" fill="#ffab19" stroke="#001026" stroke-width="1.2" stroke-linecap="round" stroke-linejoin="round"/><path d="M237.3,206.6c0,0 -1.5,-1.2 -3.1,-2.7c-2,-1.8 -4,-3.3 -2,-6.4c1.8,-2.4 3.5,-5.6 8,-2.7c4.3,2.7 2.4,5.2 2.4,5.2c-2.2,4.5 -5.3,6.6 -5.3,6.6z" fill="#ffffff" stroke="none" stroke-width="1" stroke-linecap="butt" stroke-linejoin="miter"/></g><path d="M222.2,198.4c2.2,2.8 5.6,6.3 1.3,9.2c-5.9,3.3 -10.8,-6.7 -11.8,-10.2c-0.9,-3.1 1.7,-5.1 3.9,-6.8c4.3,-3.1 7.9,-5.9 11.9,-4.4c5,1.8 1.4,5.8 -1.1,7.6c-1.5,1.1 -3,2.3 -4.1,3c-0.3,0.5 -0.4,1.1 -0.1,1.6z" fill="#ffab19" fill-rule="evenodd" stroke="#001026" stroke-width="1.2" stroke-linecap="round" stroke-linejoin="round"/><g fill-rule="evenodd"><path d="M253.7,131c0.3,-0.2 0.8,-0.1 0.9,0.3l2.6,10.7c0,0 6.4,4.7 8.3,8c3.2,5.5 3.3,10 3.3,10c0,0 7.1,2.1 8.3,7.8c1.2,5.7 -3.2,16.5 -22,20.2c-18.8,3.7 -33.9,-1.4 -41,-12.8c-7.1,-11.4 4.1,-25 3.5,-24.2l-2.1,-17.9c-0.1,-0.4 0.4,-0.7 0.8,-0.5l12.1,7.9c0,0 4.5,-1.7 9.2,-1.9c2.8,-0.2 5.2,0 7.5,0.4z" fill="#ffab19" stroke="#001026" stroke-width="1.2" stroke-linecap="butt" stroke-linejoin="miter"/><path d="M268.5,160.4c0,0 6.9,1.8 8.1,7.5c1.2,5.7 -3.6,16 -22.2,19.6c-24.2,5 -35.7,-9.4 -29,-20c6.7,-10.7 18.2,-1.6 26.6,-2.2c7.2,-0.5 8,-6.8 16.5,-4.9z" fill="#ffffff" stroke="none" stroke-width="1" stroke-linecap="butt" stroke-linejoin="miter"/><path d="M237,171.1c0,-0.4 0.4,-0.7 0.8,-0.6c1.9,0.7 7.3,2.3 13.3,2.7c5.4,0.3 8.6,0 10.1,-0.3c0.5,-0.1 0.9,0.4 0.7,0.9c-0.9,2.7 -4.7,10.2 -15.2,9.6c-9.1,-1 -10,-7.4 -9.7,-12.3z" fill="#ffffff" stroke="#001026" stroke-width="1.2" stroke-linecap="round" stroke-linejoin="round"/><path d="M286.9,161.5c-4.7,3.8 -11.9,3.9 -11.9,3.9" fill="none" stroke="#001026" stroke-width="1.2" stroke-linecap="round" stroke-linejoin="round"/><path d="M285.6,172.7c-6.3,0.5 -10.2,-1.4 -10.2,-1.4" fill="none" stroke="#001026" stroke-width="1.2" stroke-linecap="round" stroke-linejoin="round"/><path d="M251.6,162.7c2.1,0 4.3,0.2 4.4,0.9c0.1,1.4 -1.4,4.2 -3,4.3c-1.8,0.2 -6,-2.3 -6,-3.9c-0.1,-1.2 2.6,-1.3 4.6,-1.3z" fill="#001026" stroke="#001026" stroke-width="1.2" stroke-linecap="round" stroke-linejoin="round"/><path d="M206.6,161.2c0,0 8.6,2.8 12.1,5.9" fill="none" stroke="#001026" stroke-width="1.2" stroke-linecap="round" stroke-linejoin="round"/><path d="M219,170.6c-4.3,1.7 -11.7,0.6 -11.7,0.6" fill="none" stroke="#001026" stroke-width="1.2" stroke-linecap="round" stroke-linejoin="round"/><g><path d="M263.4,151c2.9,4.5 3,9.6 0.2,11.4c-2.8,1.8 -7.4,-0.3 -10.4,-4.8c-2.9,-4.5 -3,-9.6 -0.2,-11.4c2.8,-1.9 7.5,0.3 10.4,4.8z" fill="#ffffff" stroke="#001026" stroke-width="1.2" stroke-linecap="round" stroke-linejoin="round"/><path d="M263,156.7c0,1.1 -0.8,2 -1.8,2c-1,0 -1.8,-0.9 -1.8,-2c0,-1.1 0.8,-2 1.8,-2c1,0 1.8,0.9 1.8,2" fill="#001026" stroke="none" stroke-width="1" stroke-linecap="butt" stroke-linejoin="miter"/></g><g><path d="M238.6,153.8c3,4.4 2.8,9.8 0.1,11.7c-3.3,1.9 -7.7,0.5 -10.7,-3.9c-3.1,-4.4 -3.3,-10.1 -0.2,-12.3c3.1,-2.3 7.8,0.1 10.8,4.5z" fill="#ffffff" stroke="#001026" stroke-width="1.2" stroke-linecap="round" stroke-linejoin="round"/><path d="M238,159.6c0,1.1 -0.8,2 -1.8,2c-1,0 -1.8,-0.9 -1.8,-2c0,-1.1 0.8,-2 1.8,-2c1,0.1 1.8,0.9 1.8,2" fill="#001026" stroke="none" stroke-width="1" stroke-linecap="butt" stroke-linejoin="miter"/></g></g><g fill-rule="nonzero" stroke="none" stroke-width="1" stroke-linecap="butt" stroke-linejoin="miter"><path d="M239.1,159.42086c-21.3,-2.34843 -36.6,-1.56562 -33.8,-17.06526c2.8,-15.49964 31,-15.02996 43.4,-15.02996c12.4,0 27.7,8.76748 25.9,23.48431c-1.1,7.8281 -28.4,9.39372 -35.5,8.61091z" fill="#e8ae68"/><path d="M274.5,150.80994c-1,7.8281 -28.3,9.39372 -35.6,8.61091c-18.1,-2.03531 -31.9,-1.72218 -33.8,-11.27247c1.6,-0.31312 2.7,-0.78281 3.9,0.78281c1.4,1.72218 4.9,5.47967 8.3,3.91405c3.4,-1.56562 4.6,0.31312 6.7,0.31312c2.1,0 2.2,-0.93937 4.6,-0.93937c2.3,0 9.3,3.91405 11.4,3.13124c2.1,-0.78281 3.4,-1.09593 4.7,-0.78281c1.3,0.31312 5.1,1.09593 7.1,-0.62625c1.9,-1.72218 9.4,0.78281 10.9,-0.31312c1.5,-1.09593 2.9,-1.2525 4.6,-1.2525c1.4,0 5.2,-2.97468 7.4,-3.91405c0,0.78281 -0.1,1.56562 -0.2,2.34843z" fill="#d69a51"/><path d="M229,128.26501c-3.6,5.47967 -5.9,12.68153 -5.9,12.68153c-0.9,-5.47967 -0.3,-9.23716 0.7,-11.89872c1.7,-0.46969 3.4,-0.62625 5.2,-0.78281z" fill="#f2c083"/><path d="M236.3,140.78997c-1.1,-6.41904 0,-10.64622 1.3,-13.30777c1.8,-0.15656 3.6,-0.15656 5.2,-0.15656c-4,5.47967 -6.5,13.46434 -6.5,13.46434z" fill="#f2c083"/><path d="M248.7,141.72935c-1.2,-7.35842 0.3,-11.74215 1.8,-14.24715c1.5,0 3.1,0.31312 4.7,0.62625c-3.9,5.47967 -6.5,13.46434 -6.5,13.6209z" fill="#f2c083"/><path d="M212.1,155.50681c0,0 1.2,0.31312 3.4,0.78281c2.1,0.46969 5.2,0.93937 8.9,1.40906c3.7,0.46969 8,0.78281 12.6,1.09593c2.3,0.15656 4.7,0.31312 7.1,0.31312c2.4,0 4.9,-0.15656 7.3,-0.31312c4.9,-0.31312 9.8,-1.09593 14.4,-2.34843c2.3,-0.62625 4.4,-1.40906 6.4,-2.66155c0.9,-0.62625 1.9,-1.56562 2.2,-2.81812c0.1,-1.40906 0.1,-2.97468 0,-4.38374c-0.2,-2.81812 -1.1,-5.16655 -2.1,-6.88873c-1,-1.72218 -2,-2.97468 -2.9,-3.91405c-0.9,-0.93937 -1.6,-1.56562 -2.1,-2.03531c-0.5,-0.46969 -0.8,-0.62625 -0.8,-0.62625c0,0 0.3,0.15656 0.8,0.62625c0.5,0.46969 1.3,0.93937 2.2,1.87874c0.9,0.93937 2,2.03531 3,3.75749c1,1.72218 2,4.07061 2.3,7.04529c0.1,1.40906 0.2,2.97468 0,4.69686c-0.2,0.93937 -0.6,1.56562 -1,2.03531c-0.4,0.46969 -0.9,0.93937 -1.4,1.2525c-2,1.40906 -4.2,2.19187 -6.5,2.97468c-4.6,1.40906 -9.5,2.03531 -14.4,2.50499c-2.5,0.15656 -5,0.31312 -7.5,0.31312c-2.4,0 -4.8,-0.15656 -7.1,-0.31312c-4.6,-0.31312 -8.9,-0.78281 -12.6,-1.40906c-3.7,-0.62625 -6.7,-1.2525 -8.9,-1.87874c-2.1,-0.62625 -3.3,-1.09593 -3.3,-1.09593z" fill="#ad7939"/><path d="M250.2,153.15838c-1.3,0.15656 -2,-1.72218 -0.9,-1.87874c1.1,-0.15656 2.5,1.72218 0.9,1.87874z" fill="#d69a51"/><path d="M239,153.94119c-1.3,0.15656 0.1,-1.2525 1.1,-1.09593c1,0.15656 0.1,0.93937 -1.1,1.09593z" fill="#d69a51"/><path d="M261.8,152.84525c-1.1,0.15656 -0.9,-2.81812 1.4,-2.81812c2.3,0 0.3,2.66155 -1.4,2.81812z" fill="#d69a51"/><path d="M260.1,151.27963c-1.2,0.93937 -1.5,0.62625 -1.2,-0.15656c0.3,-0.78281 1.8,-0.31312 1.2,0.15656z" fill="#d69a51"/><path d="M215.2,151.59275c-1.8,0.15656 -3.5,-2.03531 -1.9,-2.19187c1.6,-0.15656 3.1,2.03531 1.9,2.19187z" fill="#d69a51"/><path d="M217.1,151.59275c-0.9,-0.31312 -1.2,-2.19187 -0.4,-2.19187c0.8,0 1.4,2.50499 0.4,2.19187z" fill="#d69a51"/><path d="M233.5,153.00181c-0.9,0.46969 -1.3,-1.40906 -0.3,-1.40906c1,0 0.9,1.09593 0.3,1.40906z" fill="#d69a51"/><path d="M272.1,148.30495c-1.2,0 -0.6,-2.03531 0.5,-2.03531c1.1,0 0.7,2.03531 -0.5,2.03531z" fill="#d69a51"/></g></g></g></g></svg>