<svg version="1.1" xmlns="http://www.w3.org/2000/svg" xmlns:xlink="http://www.w3.org/1999/xlink" width="96.678" height="85.575" viewBox="0,0,96.678,85.575"><g transform="translate(-191.661,-137.2125)"><g data-paper-data="{&quot;isPaintingLayer&quot;:true}" fill-rule="evenodd" stroke="none" stroke-width="1" stroke-linecap="butt" stroke-linejoin="miter" stroke-miterlimit="10" stroke-dasharray="" stroke-dashoffset="0" style="mix-blend-mode: normal"><g><path d="M285.799,140.2125l2.54,11.4v8.175l-4.856,0.9l-4.184,-2.925l-0.897,5.625c0,0 -4.109,7.725 -4.259,7.95c-0.149,0.225 -7.097,4.575 -7.097,4.575l-1.719,2.25l3.138,-0.225l-1.195,5.325l-0.523,5.025l2.167,5.175l1.867,6.225l1.644,6.9l1.195,4.65l-0.672,3.6l-3.511,1.275l-2.84,-0.075l-3.063,2.625l-6.724,1.125l-4.341,-1.425l-3.038,-4.725l-2.632,-13.65l-4.782,1.575l-9.488,1.65l-4.184,0.075l0.821,2.025l0.972,8.175l-0.374,3.825l-3.81,2.55l-3.586,0.225l-6.052,2.7l-6.724,-0.75c0,0 -2.391,-2.325 -2.541,-2.55c-0.149,-0.225 -2.54,-7.65 -2.54,-7.65l-1.27,-7.95l0.897,-18.375l-2.914,-1.65l-5.006,-5.1l-3.81,-6.75l-0.747,-5.1l0.672,-2.325l2.54,-0.9l2.541,1.575l4.034,6.225l3.586,5.85l3.063,2.125l6.426,-2.05l7.994,3.3h9.563l10.492,-0.9l1.985,-2.55l-5.678,-3.375l-5.305,-6.975l-1.419,-4.725l-1.27,-3.225l-2.466,2.775c0,0 -3.063,2.55 -3.287,2.475c-0.224,-0.075 -2.391,-2.1 -2.391,-2.1l-2.839,-6.174l-0.373,-5.376v-9.3h19.798l4.208,-1.575l14.919,-1.275l10.609,1.95c0,0 13.897,-3.075 14.42,-3.15z" fill="#fcb322"/><g fill="#2a3d98"><path d="M257.534,157.9075c-1.46,2.37 -3.728,3.68 -6.481,3.822c-2.448,0.126 -4.34,-1.226 -5.743,-3.204c-0.535,-0.756 -2.2,-2.708 -1.673,-3.561c1.361,-2.202 3.482,2.473 3.982,3.03c1.45,1.615 3.534,1.588 5.265,0.423c1.442,-0.969 2.515,-2.199 2.856,-4.112c-0.453,-0.028 -0.887,-0.036 -1.318,-0.085c-0.82,-0.096 -1.408,-0.614 -1.281,-1.39c0.072,-0.437 0.712,-1.001 1.184,-1.108c1.312,-0.292 2.668,-0.439 4.013,-0.499c0.375,-0.017 1.024,0.409 1.1,0.736c0.114,0.488 0.007,1.255 -0.323,1.568c-0.655,0.621 -0.536,1.096 -0.148,1.736c1.938,3.191 6.619,2.991 8.469,-0.453c0.551,-1.024 0.764,-2.26 0.977,-3.427c0.15,-0.816 0.266,-1.347 1.294,-1.227c1.079,0.126 1.576,0.882 1.498,1.698c-0.455,4.73 -3.905,9.375 -9.738,7.762c-1.334,-0.368 -2.568,-1.104 -3.933,-1.709z"/><path d="M261.479,146.3545c0.624,-0.564 1.854,-0.161 2.241,0.67c0.523,1.124 -0.192,2.657 -1.537,2.39c-0.979,-0.195 -1.182,-1.552 -1.049,-2.372c0.049,-0.309 0.174,-0.535 0.345,-0.688z"/><path d="M249.431,147.6265c0.135,-0.756 0.42,-1.508 1.421,-1.536c0.759,-0.021 1.801,1.305 1.59,2.216c-0.1,0.432 -0.777,0.955 -1.251,1.024c-0.868,0.125 -1.777,-0.843 -1.76,-1.704z"/></g></g></g></g></svg>