<svg version="1.1" xmlns="http://www.w3.org/2000/svg" xmlns:xlink="http://www.w3.org/1999/xlink" width="95.17898" height="99.84079" viewBox="0,0,95.17898,99.84079"><g transform="translate(-192.32102,-130.50077)"><g data-paper-data="{&quot;isPaintingLayer&quot;:true}" stroke-miterlimit="10" stroke-dasharray="" stroke-dashoffset="0" style="mix-blend-mode: normal"><g><g fill-rule="evenodd"><path d="M224.7,201.1c0.8,0.4 2.5,1.3 0.1,4.7c-2.4,3.4 -9.3,4.1 -10.1,4.1c-3.1,0.1 -6.9,0.1 -11.1,-1.3c-12.2,-4 -12.3,-17.1 -8.4,-19.2c3.8,-2.1 5.5,6 11,10.9c2.4,2.2 5.3,3 7.7,3.5c3.4,0.6 9.9,-3.2 10.8,-2.7z" fill="#ffab19" stroke="#001026" stroke-width="1.2" stroke-linecap="round" stroke-linejoin="round"/><path d="M199.9,193c1.6,2.7 4.7,6.5 4.7,6.5c0,0 -3.7,-0.9 -5.8,0.8c-1.7,1.3 -1.3,3.5 -1.1,4.2c-1.3,-1.3 -2.9,-3.1 -3.9,-6.6c-1,-3.5 0,-7.7 2,-8.3c2,-0.4 2.5,1.1 4.1,3.4z" fill="#ffffff" stroke="none" stroke-width="1" stroke-linecap="butt" stroke-linejoin="miter"/></g><path d="M229.7,211.5c-1.8,1.2 -8,5.6 -15.9,8.1l-0.4,0.1c-0.4,0.1 -0.6,0.6 -0.4,1c1.7,2.4 4.8,7.2 -0.7,8.9c-5.3,1.7 -15.2,-12.4 -11,-16.1c1.9,-1.4 3.6,-0.7 4.5,-0.3c0.5,0.2 1,0.2 1.5,0.1c1.2,-0.4 3.4,-1.2 5.1,-2.1c4.3,-2.2 5.3,-3.1 7.3,-4.6c2,-1.5 6.6,-5.2 10.3,-2c3.2,2.7 1.4,5.7 -0.3,6.9z" fill="#ffab19" fill-rule="evenodd" stroke="#001026" stroke-width="1.2" stroke-linecap="round" stroke-linejoin="round"/><path d="M245.6,190.7c0.5,0.4 6.6,7.6 8.6,5.8c2.4,-2.1 5.7,-6.2 9.3,-2.9c3.6,3.3 -3.2,8.9 -6.1,10.4c-6.9,3.1 -12.5,-2.8 -13.7,-4.4c-1.2,-1.6 -3.3,-4.3 -3.3,-6.9c0.1,-2.8 3.5,-3.5 5.2,-2z" fill="#ffab19" fill-rule="evenodd" stroke="#001026" stroke-width="1.2" stroke-linecap="round" stroke-linejoin="round"/><g fill-rule="evenodd"><path d="M245.7,214c2.1,1.9 6.7,5.8 6.7,5.8c0,0 14.3,-2.5 14.3,4.7c0,4.3 -7.2,5.3 -16.9,4.4c-0.6,-0.1 -1.2,-0.3 -1.7,-0.7c-2.2,-1.9 -8.5,-7.5 -12.5,-11.4c-5.9,-5.8 -10.8,-9.6 -10.8,-9.6c-8.5,-8.3 -1.6,-11.8 1.1,-16.6c2.5,-4.1 3.6,-3.3 9.6,-2.1c3.4,0.5 5.4,0.8 7.6,0.7c3.3,-0.1 2.7,4.7 1.8,7.2c0,0 -1.4,3.7 -2.7,5.6c-1.6,2.3 -2.8,3.8 -4,4.7z" fill="#ffab19" stroke="#001026" stroke-width="1.2" stroke-linecap="round" stroke-linejoin="round"/><path d="M237.3,206.6c0,0 -1.5,-1.2 -3.1,-2.7c-2,-1.8 -4,-3.3 -2,-6.4c1.8,-2.4 3.5,-5.6 8,-2.7c4.3,2.7 2.4,5.2 2.4,5.2c-2.2,4.5 -5.3,6.6 -5.3,6.6z" fill="#ffffff" stroke="none" stroke-width="1" stroke-linecap="butt" stroke-linejoin="miter"/></g><path d="M222.2,198.4c2.2,2.8 5.6,6.3 1.3,9.2c-5.9,3.3 -10.8,-6.7 -11.8,-10.2c-0.9,-3.1 1.7,-5.1 3.9,-6.8c4.3,-3.1 7.9,-5.9 11.9,-4.4c5,1.8 1.4,5.8 -1.1,7.6c-1.5,1.1 -3,2.3 -4.1,3c-0.3,0.5 -0.4,1.1 -0.1,1.6z" fill="#ffab19" fill-rule="evenodd" stroke="#001026" stroke-width="1.2" stroke-linecap="round" stroke-linejoin="round"/><g fill-rule="evenodd"><path d="M253.7,131c0.3,-0.2 0.8,-0.1 0.9,0.3l2.6,10.7c0,0 6.4,4.7 8.3,8c3.2,5.5 3.3,10 3.3,10c0,0 7.1,2.1 8.3,7.8c1.2,5.7 -3.2,16.5 -22,20.2c-18.8,3.7 -33.9,-1.4 -41,-12.8c-7.1,-11.4 4.1,-25 3.5,-24.2l-2.1,-17.9c-0.1,-0.4 0.4,-0.7 0.8,-0.5l12.1,7.9c0,0 4.5,-1.7 9.2,-1.9c2.8,-0.2 5.2,0 7.5,0.4z" fill="#ffab19" stroke="#001026" stroke-width="1.2" stroke-linecap="butt" stroke-linejoin="miter"/><path d="M268.5,160.4c0,0 6.9,1.8 8.1,7.5c1.2,5.7 -3.6,16 -22.2,19.6c-24.2,5 -35.7,-9.4 -29,-20c6.7,-10.7 18.2,-1.6 26.6,-2.2c7.2,-0.5 8,-6.8 16.5,-4.9z" fill="#ffffff" stroke="none" stroke-width="1" stroke-linecap="butt" stroke-linejoin="miter"/><path d="M237,171.1c0,-0.4 0.4,-0.7 0.8,-0.6c1.9,0.7 7.3,2.3 13.3,2.7c5.4,0.3 8.6,0 10.1,-0.3c0.5,-0.1 0.9,0.4 0.7,0.9c-0.9,2.7 -4.7,10.2 -15.2,9.6c-9.1,-1 -10,-7.4 -9.7,-12.3z" fill="#ffffff" stroke="#001026" stroke-width="1.2" stroke-linecap="round" stroke-linejoin="round"/><path d="M286.9,161.5c-4.7,3.8 -11.9,3.9 -11.9,3.9" fill="none" stroke="#001026" stroke-width="1.2" stroke-linecap="round" stroke-linejoin="round"/><path d="M285.6,172.7c-6.3,0.5 -10.2,-1.4 -10.2,-1.4" fill="none" stroke="#001026" stroke-width="1.2" stroke-linecap="round" stroke-linejoin="round"/><path d="M251.6,162.7c2.1,0 4.3,0.2 4.4,0.9c0.1,1.4 -1.4,4.2 -3,4.3c-1.8,0.2 -6,-2.3 -6,-3.9c-0.1,-1.2 2.6,-1.3 4.6,-1.3z" fill="#001026" stroke="#001026" stroke-width="1.2" stroke-linecap="round" stroke-linejoin="round"/><path d="M206.6,161.2c0,0 8.6,2.8 12.1,5.9" fill="none" stroke="#001026" stroke-width="1.2" stroke-linecap="round" stroke-linejoin="round"/><path d="M219,170.6c-4.3,1.7 -11.7,0.6 -11.7,0.6" fill="none" stroke="#001026" stroke-width="1.2" stroke-linecap="round" stroke-linejoin="round"/><g><path d="M263.4,151c2.9,4.5 3,9.6 0.2,11.4c-2.8,1.8 -7.4,-0.3 -10.4,-4.8c-2.9,-4.5 -3,-9.6 -0.2,-11.4c2.8,-1.9 7.5,0.3 10.4,4.8z" fill="#ffffff" stroke="#001026" stroke-width="1.2" stroke-linecap="round" stroke-linejoin="round"/><path d="M263,156.7c0,1.1 -0.8,2 -1.8,2c-1,0 -1.8,-0.9 -1.8,-2c0,-1.1 0.8,-2 1.8,-2c1,0 1.8,0.9 1.8,2" fill="#001026" stroke="none" stroke-width="1" stroke-linecap="butt" stroke-linejoin="miter"/></g><g><path d="M238.6,153.8c3,4.4 2.8,9.8 0.1,11.7c-3.3,1.9 -7.7,0.5 -10.7,-3.9c-3.1,-4.4 -3.3,-10.1 -0.2,-12.3c3.1,-2.3 7.8,0.1 10.8,4.5z" fill="#ffffff" stroke="#001026" stroke-width="1.2" stroke-linecap="round" stroke-linejoin="round"/><path d="M238,159.6c0,1.1 -0.8,2 -1.8,2c-1,0 -1.8,-0.9 -1.8,-2c0,-1.1 0.8,-2 1.8,-2c1,0.1 1.8,0.9 1.8,2" fill="#001026" stroke="none" stroke-width="1" stroke-linecap="butt" stroke-linejoin="miter"/></g></g><path d="M224.94938,197.61723c-1.61486,1.90847 -3.52332,0.29361 -3.52332,0.29361c-1.27231,-1.07657 -4.90529,-4.15063 -6.1776,-5.2272c0,0 -1.90847,-1.61486 -0.29361,-3.52332c1.61486,-1.90847 3.52332,-0.29361 3.52332,-0.29361c1.27231,1.07657 2.54462,2.15314 3.81693,3.22971l2.36067,1.99749c0,0 1.90847,1.61486 0.29361,3.52332z" fill="#000000" fill-rule="nonzero" stroke="none" stroke-width="0.5" stroke-linecap="butt" stroke-linejoin="miter"/><path d="M252.95658,195.10678c2.32119,0.92848 1.39272,3.24967 1.39272,3.24967l-0.8167,1.92029c0.01504,0.79281 0.03007,1.58562 0.04511,2.37843c0,0 0,2.5 -2.5,2.5c-2.5,0 -2.5,-2.5 -2.5,-2.5c0.01504,-1.10799 0.03007,-2.21598 0.04511,-3.32397l1.0841,-2.83171c0,0 0.92848,-2.32119 3.24967,-1.39272z" fill="#000000" fill-rule="nonzero" stroke="none" stroke-width="0.5" stroke-linecap="butt" stroke-linejoin="miter"/><path d="M245.03625,211.6326c1.95217,1.56174 0.39043,3.51391 0.39043,3.51391l-2.0852,2.58203c-0.86068,0.69507 -1.72135,1.39014 -2.58203,2.0852c0,0 -1.95217,1.56174 -3.51391,-0.39043c-1.56174,-1.95217 0.39043,-3.51391 0.39043,-3.51391c0.72332,-0.57213 1.44665,-1.14426 2.16997,-1.71639l1.71639,-2.16997c0,0 1.56174,-1.95217 3.51391,-0.39043z" fill="#000000" fill-rule="nonzero" stroke="none" stroke-width="0.5" stroke-linecap="butt" stroke-linejoin="miter"/><path d="M240.27211,205.50637c0,1.99846 -1.59753,2.39938 -2.23852,2.47981c-2.11606,1.3435 -3.30609,2.70869 -4.96211,4.78432c0,0 -1.56174,1.95217 -3.51391,0.39043c-1.95217,-1.56174 -0.39043,-3.51391 -0.39043,-3.51391c2.14246,-2.67148 3.91186,-4.50102 6.84353,-6.28439l1.76144,-0.35627c0,0 2.5,0 2.5,2.5z" fill="#000000" fill-rule="nonzero" stroke="none" stroke-width="0.5" stroke-linecap="butt" stroke-linejoin="miter"/><path d="M255.22147,217.5194c1.76777,1.76777 0,3.53553 0,3.53553l0.07822,-0.36409c-1.08507,2.69007 -2.48905,5.00242 -3.97906,7.48576c0,0 -1.28624,2.14373 -3.42997,0.85749c-2.14373,-1.28624 -0.85749,-3.42997 -0.85749,-3.42997c1.35236,-2.25394 2.65561,-4.32493 3.62414,-6.77023l1.02862,-1.31449c0,0 1.76777,-1.76777 3.53553,0z" fill="#000000" fill-rule="nonzero" stroke="none" stroke-width="0.5" stroke-linecap="butt" stroke-linejoin="miter"/><path d="M262.65013,229.60163c-2.23607,1.11803 -3.3541,-1.11803 -3.3541,-1.11803l-0.73913,-2.06843c0,-1.9008 0,-3.8016 0,-5.7024c0,0 0,-2.5 2.5,-2.5c2.5,0 2.5,2.5 2.5,2.5c0,1.9008 0,3.8016 0,5.7024l0.21127,-0.16763c0,0 1.11803,2.23607 -1.11803,3.3541z" fill="#000000" fill-rule="nonzero" stroke="none" stroke-width="0.5" stroke-linecap="butt" stroke-linejoin="miter"/><path d="M201.78996,215.35254c0,0 -1.76777,-1.76777 0,-3.53553c1.76777,-1.76777 3.53553,0 3.53553,0c2.26154,2.36973 5.69427,3.61463 8.54727,5.32643l0.95673,0.85117c0,0 1.55256,1.55256 0.29271,3.20268c1.39576,1.99389 -0.59005,3.43812 -0.59005,3.43812c-1.34789,0.98029 -2.69579,1.96057 -4.04368,2.94086l-1.18352,0.86074c0,0 -2.02184,1.47043 -3.49227,-0.55141c-1.47043,-2.02184 0.55141,-3.49227 0.55141,-3.49227c1.12181,-0.81586 3.06342,-2.22794 4.46024,-3.24381c-3.1666,-1.8461 -6.40004,-3.24561 -9.03438,-5.79697z" fill="#000000" fill-rule="nonzero" stroke="none" stroke-width="0.5" stroke-linecap="butt" stroke-linejoin="miter"/><path d="M220.53188,217.25334c-1.76777,1.76777 -3.53553,0 -3.53553,0c-0.6336,-0.6336 -3.168,-3.168 -3.8016,-3.8016c0,0 -1.76777,-1.76777 0,-3.53553c1.76777,-1.76777 3.53553,0 3.53553,0c0.6336,0.6336 1.2672,1.2672 1.9008,1.9008l1.9008,1.9008c0,0 1.76777,1.76777 0,3.53553z" fill="#000000" fill-rule="nonzero" stroke="none" stroke-width="0.5" stroke-linecap="butt" stroke-linejoin="miter"/><path d="M224.32658,200.11154c1.11803,2.23607 -1.11803,3.3541 -1.11803,3.3541l-0.78219,0.38286c-1.584,0.9504 -3.168,1.9008 -4.752,2.8512c0,0 -2.14373,1.28624 -3.42997,-0.85749c-1.28624,-2.14373 0.85749,-3.42997 0.85749,-3.42997c1.584,-0.9504 3.168,-1.9008 4.752,-2.8512l1.11861,-0.56754c0,0 2.23607,-1.11803 3.3541,1.11803z" fill="#000000" fill-rule="nonzero" stroke="none" stroke-width="0.5" stroke-linecap="butt" stroke-linejoin="miter"/><path d="M261.0569,201.35357c-1.99727,0 -2.39891,-1.59564 -2.47967,-2.23738c-0.74648,-1.17391 -1.62517,-2.27296 -2.61449,-3.24685c0,0 -1.76777,-1.76777 0,-3.53553c1.76777,-1.76777 3.53553,0 3.53553,0c1.41214,1.42992 2.65792,3.04137 3.70236,4.75833l0.35627,1.76144c0,0 0,2.5 -2.5,2.5z" fill="#000000" fill-rule="nonzero" stroke="none" stroke-width="0.5" stroke-linecap="butt" stroke-linejoin="miter"/><path d="M209.42775,200.41911c2.23607,1.11803 1.11803,3.3541 1.11803,3.3541l-0.7591,1.3941c-1.39505,1.70395 -3.06842,3.2275 -4.94273,4.38359c0,0 -2.14373,1.28624 -3.42997,-0.85749c-1.28624,-2.14373 0.85749,-3.42997 0.85749,-3.42997c1.39663,-0.80615 2.62269,-1.94525 3.61087,-3.2196l0.1913,-0.5067c0,0 1.11803,-2.23607 3.3541,-1.11803z" fill="#000000" fill-rule="nonzero" stroke="none" stroke-width="0.5" stroke-linecap="butt" stroke-linejoin="miter"/><path d="M261.6561,143.2552c0,2.5 -2.5,2.5 -2.5,2.5h-2.376c-9.40828,0 -19.31112,-0.59177 -28.58673,0.91812c-3.50413,0.5704 -6.59994,2.64681 -9.56861,4.42801c0,0 -2.14373,1.28624 -3.42997,-0.85749c-1.28624,-2.14373 0.85749,-3.42997 0.85749,-3.42997c0.59077,-0.35446 1.18382,-0.7121 1.78127,-1.06528c-0.26016,-0.06183 -0.53748,-0.17362 -0.83087,-0.34965c-2.14373,-1.28624 -0.85749,-3.42997 -0.85749,-3.42997c1.15609,-1.87431 2.67965,-3.54768 4.38359,-4.94273l2.98734,-0.54783c0,0 2.5,0 2.5,2.5c0,2.5 -2.5,2.5 -2.5,2.5l0.13614,-0.54783c-1.15716,0.89731 -2.2028,1.99075 -2.98891,3.22994c2.12259,-1.10501 4.33665,-2.0164 6.72911,-2.42263c8.63591,-1.46636 17.83905,-1.08097 26.68403,-0.99676l-1.44016,-0.47015c-0.95154,-0.99707 -2.14552,-1.81782 -3.43751,-2.29777c0,0 -2.32119,-0.92848 -1.39272,-3.24967c0.92848,-2.32119 3.24967,-1.39272 3.24967,-1.39272c1.59047,0.66716 3.08639,1.61415 4.39776,2.74742c0.73814,0.1664 1.92576,0.70188 1.92576,2.42497c0,1.34062 -0.71891,1.96234 -1.3857,2.25066c0.26255,0.00087 0.52473,0.00134 0.7865,0.00134h2.376c0,0 2.5,0 2.5,2.5z" fill="#000000" fill-rule="nonzero" stroke="none" stroke-width="0.5" stroke-linecap="butt" stroke-linejoin="miter"/><path d="M225.06572,177.94478c0,2.5 -2.5,2.5 -2.5,2.5l-2.645,-0.00852c-0.88213,0.1499 -1.76427,0.2998 -2.6464,0.4497c0,0 -2.46598,0.411 -2.87698,-2.05499c-0.411,-2.46598 2.05499,-2.87698 2.05499,-2.87698c1.01867,-0.1669 2.03733,-0.3338 3.056,-0.5007l3.0574,-0.00852c0,0 2.5,0 2.5,2.5z" fill="#000000" fill-rule="nonzero" stroke="none" stroke-width="0.5" stroke-linecap="butt" stroke-linejoin="miter"/><path d="M225.36211,170.31966c-0.92848,2.32119 -3.24967,1.39272 -3.24967,1.39272l-1.92029,-0.8167c-2.93144,0.0556 -5.58923,0.01146 -8.49183,-0.46411c0,0 -2.46598,-0.411 -2.05499,-2.87698c0.411,-2.46598 2.87698,-2.05499 2.87698,-2.05499c2.91903,0.49603 5.65277,0.44609 8.61537,0.48629l2.83171,1.0841c0,0 2.32119,0.92848 1.39272,3.24967z" fill="#000000" fill-rule="nonzero" stroke="none" stroke-width="0.5" stroke-linecap="butt" stroke-linejoin="miter"/><path d="M226.01611,157.51119c0,1.48852 -0.88627,2.09076 -1.60343,2.33442c-0.27831,0.10696 -0.58059,0.16558 -0.89657,0.16558c-1.9008,0 -6.6528,0 -8.5536,0c0,0 -2.5,0 -2.5,-2.5c0,-2.5 2.5,-2.5 2.5,-2.5c1.9008,0 3.8016,0 5.7024,0h2.8512c0,0 0.40924,0 0.89657,0.16558c0.71716,0.24366 1.60343,0.84591 1.60343,2.33442z" fill="#000000" fill-rule="nonzero" stroke="none" stroke-width="0.5" stroke-linecap="butt" stroke-linejoin="miter"/><path d="M253.1025,156.08559c0,2.5 -2.5,2.5 -2.5,2.5c-2.8512,0 -6.1776,0 -9.0288,0c0,0 -2.5,0 -2.5,-2.5c0,-2.5 2.5,-2.5 2.5,-2.5c2.8512,0 5.7024,0 8.5536,0h0.4752c0,0 2.5,0 2.5,2.5z" fill="#000000" fill-rule="nonzero" stroke="none" stroke-width="0.5" stroke-linecap="butt" stroke-linejoin="miter"/><path d="M263.7841,155.13519c0,-1.38071 1.11929,-2.5 2.5,-2.5c0.24766,0 0.48691,0.03601 0.7128,0.10309c0.22589,-0.06707 0.46514,-0.10309 0.7128,-0.10309c1.38071,0 2.5,1.11929 2.5,2.5c0,1.38071 -1.11929,2.5 -2.5,2.5c-0.24766,0 -0.48691,-0.03601 -0.7128,-0.10309c-0.22589,0.06707 -0.46514,0.10309 -0.7128,0.10309c-1.38071,0 -2.5,-1.11929 -2.5,-2.5z" fill="#000000" fill-rule="nonzero" stroke="none" stroke-width="0.5" stroke-linecap="butt" stroke-linejoin="miter"/></g></g></g></svg>